<?xml version="1.0" encoding="utf-8"?>
<svg width="230px" height="230px" viewBox="0 0 230 230" version="1.1" xmlns:xlink="http://www.w3.org/1999/xlink" xmlns="http://www.w3.org/2000/svg">
  <defs>
    <path d="M230 0L230 0L230 230L0 230L0 0L230 0Z" id="path_1" />
    <clipPath id="clip_1">
      <use xlink:href="#path_1" />
    </clipPath>
  </defs>
  <g id="404" clip-path="url(#clip_1)">
    <path d="M230 0L230 0L230 230L0 230L0 0L230 0Z" id="404" fill="none" stroke="none" />
    <g id="Layer_2" transform="translate(0 0.008096281)">
      <g id="vector">
        <path d="M167.89 26.722C180.868 38.1375 189.362 54.0649 202.999 76.9579C216.698 99.8508 235.589 129.707 228.425 147.506C221.261 165.305 187.914 171.043 156.428 182.715C124.942 194.387 95.2983 211.927 68.0286 208.508C40.7589 205.089 15.8629 180.716 9.60136 153.76C3.27641 126.739 15.5283 97.1403 24.3538 70.1843C33.1159 43.2311 38.4516 18.9094 53.7982 7.89772C69.1448 -3.11395 94.5081 -0.747856 115.983 3.82905C137.456 8.46242 154.911 15.3094 167.89 26.722L167.89 26.722Z" id="Shape" fill="#F8F8F8" fill-rule="evenodd" stroke="none" />
        <path d="M49.3422 218.752L40.3147 218.752L40.3147 229.218L27.0793 229.218L27.0793 218.752L0 218.752L0 214.799L31.2873 172.937L40.3147 172.937L40.3147 207.599L49.3422 207.599L49.3422 218.752ZM27.0794 207.599L27.0794 194.557L17.6164 207.599L27.0794 207.599Z" id="Shape" fill="#000000" fill-rule="evenodd" stroke="none" />
        <path d="M56.8785 201.164C56.8785 184.949 61.6979 172.164 78.5096 172.164C95.2378 172.164 99.8928 184.948 99.8928 201.164C99.8928 217.295 95.2493 229.992 78.5096 229.992C61.6979 229.992 56.8785 217.295 56.8785 201.164L56.8785 201.164ZM86.6747 201.164C86.6747 191.383 84.7452 183.833 78.5241 183.833C72.2135 183.833 70.0245 191.383 70.0245 201.164C70.0245 210.857 72.2135 218.238 78.5241 218.238C84.7452 218.249 86.6747 210.857 86.6747 201.164L86.6747 201.164Z" id="Shape" fill="#000000" fill-rule="evenodd" stroke="none" />
        <path d="M154.331 218.752L145.304 218.752L145.304 229.218L132.071 229.218L132.071 218.752L104.983 218.752L104.983 214.799L136.276 172.937L145.304 172.937L145.304 207.599L154.331 207.599L154.331 218.752ZM132.071 207.599L132.071 194.557L122.606 207.599L132.071 207.599Z" id="Shape" fill="#000000" fill-rule="evenodd" stroke="none" />
        <path d="M159.71 219.011L154.804 219.011L154.804 214.945L159.71 214.945L159.71 219.011Z" id="Rectangle" fill="#DE8E68" fill-rule="evenodd" stroke="none" />
        <path d="M160.172 218.376L160.172 222.442L148.499 222.442L148.499 220.962L154.571 218.376L160.172 218.376L160.172 218.376Z" id="Polygon" fill="#000000" fill-rule="evenodd" stroke="none" />
        <path d="M83.4531 169.134L78.5471 169.134L78.5471 165.068L83.4531 165.068L83.4531 169.134Z" id="Rectangle" fill="#DE8E68" fill-rule="evenodd" stroke="none" />
        <path d="M83.9145 168.499L83.9145 172.565L72.2452 172.565L72.2452 171.088L78.3164 168.499L83.9145 168.499L83.9145 168.499Z" id="Polygon" fill="#000000" fill-rule="evenodd" stroke="none" />
        <path d="M154.634 114.121C154.882 116.43 160.094 216.018 160.094 216.018L154.634 216.018L128.085 122.25L154.634 114.121Z" id="Shape" fill="#808080" fill-rule="evenodd" stroke="none" />
        <path d="M157.437 103.149C157.437 116.673 152.358 128.843 142.076 128.843C127.961 128.843 109.275 120.033 104.132 115.061C102.849 118.777 84.6442 165.579 84.6442 165.579L77.105 165.579C77.105 165.579 81.936 111.086 90.9922 97.1092C93.9716 93.2241 118.285 94.1954 130.569 97.1092C142.852 100.023 157.437 103.149 157.437 103.149L157.437 103.149Z" id="Shape" fill="#808080" fill-rule="evenodd" stroke="none" />
        <path d="M120.979 24.3475C121.156 23.4826 121.967 22.8852 122.865 22.9583C123.97 23.0345 125.775 25.8919 125.775 28.2044C125.775 30.5168 125.109 31.3865 125.311 33.0665C125.513 34.7464 129.882 57.5265 129.882 58.9157C130.984 58.9919 134.927 58.4526 134.927 58.4526L132.167 69.3344L124.131 69.3344L118.94 25.5051L120.979 24.3475Z" id="Shape" fill="#D37C59" fill-rule="evenodd" stroke="none" />
        <path d="M128.685 28.227L126.992 34.9243C126.992 34.9243 110.29 33.0241 108.467 32.5836C106.645 32.1432 109.39 21.0694 111.262 21.5211C113.134 21.9729 128.685 28.227 128.685 28.227L128.685 28.227Z" id="Shape" fill="#000000" fill-rule="evenodd" stroke="none" />
        <path d="M143.989 48.0395C165.354 48.0395 160.085 102.079 157.59 104.1C155.096 106.122 128.532 99.3003 126.326 96.2904C124.12 93.2805 128.319 48.0395 143.989 48.0395L143.989 48.0395Z" id="Shape" fill="#E5BE3F" fill-rule="evenodd" stroke="none" />
        <path d="M136.363 61.7589C135.189 62.1486 128.305 64.7772 128.305 64.7772C128.189 63.422 122.897 36.5422 122.571 34.8961C123.239 33.2531 123.569 31.4972 123.543 29.7291C123.543 25.3159 121.711 21.7329 119.453 21.7329C117.195 21.7329 115.366 25.3159 115.366 29.7291C115.334 31.5762 115.698 33.4094 116.433 35.1106C116.18 38.4706 113.901 70.3734 118.55 74.9221C123.453 79.722 135.374 75.3936 142.619 72.1691C144.17 71.644 142.056 60.2512 136.363 61.7589L136.363 61.7589Z" id="Shape" fill="#DE8E68" fill-rule="evenodd" stroke="none" />
        <path d="M126.93 29.8704L131.251 30.9935L130.449 33.949L126.128 32.8259L126.93 29.8704Z" id="Rectangle" fill="#000000" fill-rule="evenodd" stroke="none" />
        <path d="M157.605 57.967C160.861 64.1561 147.966 75.3061 144.398 74.476C140.83 73.6459 135.077 61.1829 136.152 58.9467C137.228 56.7105 154.438 51.9444 157.605 57.967L157.605 57.967Z" id="Shape" fill="#E5BE3F" fill-rule="evenodd" stroke="none" />
        <path d="M145.298 53.2771C145.298 54.3246 138.771 54.59 138.771 53.2771L138.771 41.2151L145.298 41.2151L145.298 53.2771Z" id="Shape" fill="#D37C59" fill-rule="evenodd" stroke="none" />
        <path d="M131.157 34.7295C131.157 27.2803 134.971 21.2416 139.677 21.2416C144.382 21.2416 148.197 27.2803 148.197 34.7295C148.197 42.1787 144.382 48.2174 139.677 48.2174C134.971 48.2174 131.157 42.1787 131.157 34.7295Z" id="Oval" fill="#DC8E6C" fill-rule="evenodd" stroke="none" />
        <path d="M133.294 25.7931C133.162 27.7655 134.127 29.6543 135.818 30.7342C138.359 32.4283 140.17 31.6801 142.033 33.2754C143.017 34.2382 145.425 36.0989 145.448 38.9732C145.448 41.0993 146.16 42.1723 146.786 42.1723C147.412 42.1723 149.062 41.7487 150.123 41.7487C160.547 41.7487 172.787 52.2832 196.27 52.2832C208.536 52.2832 227.785 49.2536 227.785 31.618C227.785 22.0943 224.284 10.5857 205.776 10.5857C194.023 10.5857 185.789 16.2327 176.133 16.2327C163.731 16.2327 158.949 11.8365 150.38 11.8365C144.277 11.8365 130.543 15.2981 130.543 24.3672C130.543 27.8119 131.645 28.8114 131.985 28.9893C132.094 28.611 132.766 26.6571 133.294 25.7931L133.294 25.7931Z" id="Shape" fill="#000000" fill-rule="evenodd" stroke="none" />
        <path d="M142.397 37.9229C142.397 36.7471 143.37 35.794 144.571 35.794C145.772 35.794 146.746 36.7471 146.746 37.9229C146.746 39.0987 145.772 40.0518 144.571 40.0518C143.37 40.0518 142.397 39.0987 142.397 37.9229Z" id="Circle" fill="#DC8E6C" fill-rule="evenodd" stroke="none" />
      </g>
    </g>
  </g>
</svg>