<?xml version="1.0" encoding="utf-8"?>
<svg width="200px" height="200px" viewBox="0 0 200 200" version="1.1" xmlns:xlink="http://www.w3.org/1999/xlink" xmlns="http://www.w3.org/2000/svg">
  <defs>
    <path d="M200 0L200 0L200 200L0 200L0 0L200 0Z" id="path_1" />
    <path d="M100 17.5C54.4629 17.5 17.5 54.4629 17.5 100C17.5 145.537 54.4629 182.5 100 182.5C145.537 182.5 182.5 145.537 182.5 100C182.5 54.4629 145.537 17.5 100 17.5L100 17.5ZM100 22.5C142.832 22.5 177.5 57.168 177.5 100C177.5 142.832 142.832 177.5 100 177.5C57.168 177.5 22.5 142.832 22.5 100C22.5 57.168 57.168 22.5 100 22.5L100 22.5ZM100 30C98.623 30 97.5 31.123 97.5 32.5C97.5 33.877 98.623 35 100 35C101.377 35 102.5 33.877 102.5 32.5C102.5 31.123 101.377 30 100 30L100 30ZM113.232 31.2891C112.012 31.2598 110.957 32.1094 110.713 33.3105C110.449 34.6582 111.328 35.9766 112.686 36.25C114.033 36.5137 115.352 35.6348 115.625 34.2871C115.889 32.9297 115.01 31.6113 113.662 31.3379C113.516 31.3184 113.379 31.2988 113.232 31.2891L113.232 31.2891ZM86.8457 31.2988C86.6797 31.2988 86.5137 31.3086 86.3477 31.3379C84.9902 31.6113 84.1113 32.9297 84.3848 34.2871C84.5117 34.9316 84.8926 35.5078 85.4492 35.8789C85.9961 36.2402 86.6699 36.377 87.3242 36.25C88.6817 35.9766 89.5606 34.668 89.2871 33.3105C89.0527 32.1484 88.0371 31.3086 86.8457 31.2988L86.8457 31.2988ZM74.1895 35.1367C73.8574 35.1367 73.5254 35.1953 73.2129 35.3223C71.9336 35.8594 71.3281 37.3145 71.8652 38.5938C72.3926 39.873 73.8477 40.4785 75.127 39.9512C76.4063 39.4141 77.0117 37.959 76.4844 36.6797C76.0938 35.752 75.1953 35.1465 74.1895 35.1367L74.1895 35.1367ZM125.889 35.1367C124.854 35.1172 123.916 35.7226 123.516 36.6797C122.988 37.959 123.594 39.414 124.873 39.9511C126.152 40.4785 127.607 39.873 128.135 38.5937C128.672 37.3144 128.066 35.8593 126.787 35.3222C126.504 35.205 126.191 35.1465 125.889 35.1367L125.889 35.1367ZM62.5293 41.3672C62.0215 41.3672 61.5234 41.5137 61.1035 41.7969C59.9609 42.5586 59.6484 44.1113 60.4199 45.2637C61.1816 46.4063 62.7344 46.7188 63.8867 45.9473C65.039 45.1855 65.3418 43.6328 64.5801 42.4902C64.1211 41.7969 63.3496 41.377 62.5293 41.3672L62.5293 41.3672ZM137.539 41.3672C136.689 41.3575 135.889 41.7774 135.42 42.4903C134.648 43.6329 134.961 45.1856 136.104 45.9473C137.256 46.7188 138.809 46.4063 139.57 45.2637C139.941 44.7168 140.078 44.0332 139.951 43.3887C139.824 42.7344 139.443 42.1582 138.887 41.7969C138.486 41.5235 138.027 41.377 137.539 41.3672L137.539 41.3672ZM52.3047 49.7656C51.6309 49.7656 50.9766 50.0293 50.5078 50.5078C49.5313 51.4746 49.5313 53.0664 50.5078 54.0332C51.4746 55.0098 53.0664 55.0098 54.0332 54.0332C55.0098 53.0664 55.0098 51.4746 54.0332 50.5078C53.5742 50.0391 52.959 49.7754 52.3047 49.7656L52.3047 49.7656ZM147.764 49.7656C147.09 49.7656 146.436 50.0293 145.967 50.5078C144.99 51.4746 144.99 53.0664 145.967 54.0332C146.934 55.0098 148.525 55.0098 149.492 54.0332C150.469 53.0664 150.469 51.4746 149.492 50.5078C149.033 50.0391 148.418 49.7754 147.764 49.7656L147.764 49.7656ZM156.152 60C155.645 59.9902 155.156 60.1367 154.736 60.4199C153.594 61.1816 153.281 62.7343 154.053 63.8769C154.814 65.0293 156.367 65.3418 157.51 64.5703C158.662 63.7988 158.975 62.2558 158.203 61.1035C157.744 60.4199 156.973 60 156.152 60L156.152 60ZM43.916 60C43.0664 59.9805 42.2656 60.4004 41.7969 61.1036C41.0352 62.2559 41.3379 63.8086 42.4902 64.5704C43.6426 65.3418 45.1856 65.0293 45.957 63.8868C46.7188 62.7344 46.416 61.1817 45.2637 60.42C44.8633 60.1563 44.4043 60.0098 43.916 60L43.916 60ZM78.7891 64.6484L64.6484 78.7891L85.8594 100L64.6484 121.211L78.7891 135.352L100 114.141L121.211 135.352L135.352 121.211L114.141 100L135.352 78.7891L133.594 77.0215L121.211 64.6484L100 85.8594L78.7891 64.6484ZM162.383 71.6699C162.051 71.6601 161.719 71.7285 161.406 71.8554C160.127 72.3828 159.522 73.8476 160.049 75.1171C160.586 76.3964 162.041 77.0019 163.32 76.4745C164.6 75.9472 165.205 74.4824 164.678 73.2031C164.287 72.2851 163.389 71.6699 162.383 71.6699L162.383 71.6699ZM37.6953 71.6699C36.6602 71.6504 35.7227 72.2558 35.332 73.2129C34.8047 74.4922 35.4102 75.9472 36.6797 76.4843C37.959 77.0117 39.4238 76.4062 39.9512 75.1269C40.4785 73.8476 39.8731 72.3925 38.5938 71.8652C38.3106 71.7383 38.0078 71.6797 37.6953 71.6699L37.6953 71.6699ZM78.7891 71.7188L100 92.9297L121.211 71.7188L128.281 78.7891L107.07 100L128.281 121.211L121.211 128.281L100 107.07L78.7891 128.281L71.7188 121.211L92.9297 100L71.7188 78.7891L78.7891 71.7188ZM166.211 84.3359C166.045 84.3261 165.879 84.3457 165.713 84.375C164.365 84.6484 163.486 85.9668 163.75 87.3144C164.023 88.6718 165.342 89.5508 166.689 89.2871C168.047 89.0136 168.926 87.6953 168.662 86.3379C168.428 85.1758 167.402 84.3359 166.211 84.3359L166.211 84.3359ZM33.8672 84.336C32.6465 84.3067 31.5918 85.1465 31.3477 86.3379C31.2207 86.9922 31.3477 87.6758 31.7188 88.2227C32.0898 88.7793 32.666 89.1602 33.3203 89.2871C33.9648 89.4141 34.6387 89.2774 35.1953 88.916C35.7422 88.5449 36.123 87.9688 36.25 87.3145C36.5234 85.9668 35.6445 84.6485 34.2969 84.375C34.1504 84.3555 34.0137 84.336 33.8672 84.336L33.8672 84.336ZM32.5 97.5C31.123 97.5 30 98.623 30 100C30 101.377 31.123 102.5 32.5 102.5C33.877 102.5 35 101.377 35 100C35 98.623 33.877 97.5 32.5 97.5L32.5 97.5ZM167.5 97.5C166.123 97.5 165 98.623 165 100C165 101.377 166.123 102.5 167.5 102.5C168.877 102.5 170 101.377 170 100C170 98.623 168.877 97.5 167.5 97.5L167.5 97.5ZM33.8086 110.664C33.6426 110.664 33.4766 110.684 33.3106 110.713C31.9531 110.986 31.0742 112.305 31.3477 113.662C31.6211 115.01 32.9297 115.889 34.2871 115.625C35.6445 115.352 36.5235 114.033 36.25 112.686C36.0156 111.514 35 110.674 33.8086 110.664L33.8086 110.664ZM166.27 110.664C165.049 110.635 163.994 111.484 163.75 112.686C163.486 114.033 164.365 115.352 165.713 115.625C167.07 115.889 168.389 115.01 168.662 113.662C168.926 112.305 168.047 110.986 166.689 110.713C166.553 110.693 166.416 110.674 166.27 110.664L166.27 110.664ZM162.422 123.32C161.387 123.301 160.449 123.916 160.049 124.873C159.522 126.143 160.127 127.607 161.406 128.135C162.686 128.662 164.141 128.057 164.678 126.787C165.205 125.508 164.6 124.043 163.32 123.516C163.037 123.398 162.725 123.33 162.422 123.32L162.422 123.32ZM37.6563 123.33C37.3242 123.33 36.9922 123.389 36.6797 123.516C36.0742 123.77 35.586 124.258 35.3321 124.873C35.0781 125.488 35.0781 126.172 35.3223 126.787C35.8594 128.066 37.3145 128.672 38.5938 128.135C39.209 127.891 39.6973 127.402 39.9512 126.787C40.2051 126.172 40.2051 125.488 39.9512 124.873C39.5703 123.945 38.6621 123.34 37.6563 123.33L37.6563 123.33ZM156.172 135C155.322 134.98 154.521 135.4 154.053 136.103C153.281 137.256 153.594 138.799 154.736 139.57C155.283 139.941 155.967 140.078 156.611 139.941C157.266 139.814 157.842 139.434 158.203 138.877C158.975 137.734 158.662 136.182 157.51 135.42C157.119 135.146 156.65 135 156.172 135L156.172 135ZM43.9062 135C43.3984 134.99 42.9101 135.137 42.4902 135.42C41.3476 136.191 41.0351 137.734 41.7969 138.887C42.5683 140.029 44.1211 140.342 45.2734 139.57C46.416 138.809 46.7285 137.256 45.957 136.103C45.498 135.42 44.7265 135.01 43.9062 135L43.9062 135ZM52.3047 145.234C51.6309 145.225 50.9766 145.488 50.5078 145.967C49.5313 146.934 49.5313 148.525 50.5078 149.492C51.4746 150.469 53.0664 150.469 54.0332 149.492C55.0098 148.525 55.0098 146.934 54.0332 145.967C53.5742 145.498 52.959 145.234 52.3047 145.234L52.3047 145.234ZM147.764 145.234C147.09 145.225 146.436 145.488 145.967 145.967C144.99 146.934 144.99 148.525 145.967 149.492C146.934 150.469 148.525 150.469 149.492 149.492C150.469 148.525 150.469 146.934 149.492 145.967C149.033 145.498 148.418 145.234 147.764 145.234L147.764 145.234ZM62.5488 153.623C61.6992 153.603 60.8984 154.023 60.4297 154.726C59.6582 155.879 59.9707 157.432 61.1231 158.203C62.2656 158.965 63.8184 158.652 64.5801 157.51C65.3516 156.357 65.0391 154.814 63.8965 154.043C63.4961 153.779 63.0273 153.623 62.5488 153.623L62.5488 153.623ZM137.529 153.623C137.021 153.613 136.533 153.76 136.113 154.033C135.557 154.404 135.176 154.98 135.049 155.635C134.922 156.279 135.059 156.963 135.43 157.51C136.191 158.652 137.744 158.965 138.896 158.203C140.039 157.432 140.352 155.879 139.58 154.727C139.131 154.043 138.359 153.623 137.529 153.623L137.529 153.623ZM74.2285 159.853C73.1934 159.834 72.2559 160.449 71.8652 161.406C71.3379 162.676 71.9434 164.141 73.2129 164.668C74.4922 165.195 75.957 164.59 76.4844 163.32C77.0117 162.041 76.4063 160.576 75.127 160.049C74.8438 159.932 74.541 159.863 74.2285 159.853L74.2285 159.853ZM125.85 159.854C125.518 159.854 125.186 159.922 124.883 160.049C124.268 160.303 123.779 160.791 123.525 161.396C123.271 162.012 123.271 162.705 123.516 163.32C124.053 164.59 125.508 165.195 126.787 164.668C127.402 164.414 127.891 163.926 128.145 163.32C128.398 162.705 128.398 162.012 128.145 161.406C127.764 160.469 126.855 159.863 125.85 159.854L125.85 159.854ZM86.9043 163.701C85.6836 163.672 84.6192 164.521 84.3848 165.713C84.1113 167.07 84.9902 168.379 86.3477 168.652C87.7051 168.926 89.0137 168.047 89.2871 166.689C89.5606 165.332 88.6817 164.023 87.3242 163.75C87.1875 163.721 87.041 163.701 86.9043 163.701L86.9043 163.701ZM113.174 163.711C113.008 163.701 112.842 163.721 112.686 163.75C111.328 164.023 110.449 165.332 110.713 166.689C110.85 167.344 111.23 167.91 111.777 168.281C112.334 168.652 113.008 168.789 113.662 168.662C114.307 168.525 114.883 168.145 115.254 167.598C115.615 167.041 115.752 166.367 115.625 165.713C115.391 164.551 114.365 163.711 113.174 163.711L113.174 163.711ZM100 165C98.623 165 97.5 166.123 97.5 167.5C97.5 168.877 98.623 170 100 170C101.377 170 102.5 168.877 102.5 167.5C102.5 166.123 101.377 165 100 165L100 165Z" id="path_2" />
    <clipPath id="clip_1">
      <use xlink:href="#path_1" />
    </clipPath>
    <clipPath id="clip_2">
      <use xlink:href="#path_2" />
    </clipPath>
  </defs>
  <g id="Error" clip-path="url(#clip_1)">
    <path d="M200 0L200 0L200 200L0 200L0 0L200 0Z" id="Error" fill="none" stroke="none" />
    <g id="Shape">
      <use stroke="none" fill="#E5BE3F" xlink:href="#path_2" fill-rule="evenodd" />
      <g clip-path="url(#clip_2)">
        <use xlink:href="#path_2" fill="none" stroke="#000000" stroke-width="2" />
      </g>
    </g>
  </g>
</svg>