<?xml version="1.0" encoding="utf-8"?>
<svg width="200px" height="200px" viewBox="0 0 200 200" version="1.1" xmlns:xlink="http://www.w3.org/1999/xlink" xmlns="http://www.w3.org/2000/svg">
  <defs>
    <path d="M100 0C44.8035 0 0 44.8035 0 100C0 155.196 44.8035 200 100 200C155.196 200 200 155.196 200 100C200 44.8035 155.196 0 100 0L100 0ZM100 6.06061C151.918 6.06061 193.939 48.0824 193.939 100C193.939 151.918 151.918 193.939 100 193.939C48.0824 193.939 6.06061 151.918 6.06061 100C6.06061 48.0824 48.0824 6.06061 100 6.06061L100 6.06061ZM100 15.1515C98.331 15.1515 96.9697 16.5128 96.9697 18.1818C96.9697 19.8509 98.331 21.2121 100 21.2121C101.669 21.2121 103.03 19.8509 103.03 18.1818C103.03 16.5128 101.669 15.1515 100 15.1515L100 15.1515ZM116.039 16.714C114.56 16.6785 113.281 17.7083 112.985 19.1643C112.666 20.7978 113.731 22.3958 115.376 22.7273C117.01 23.0469 118.608 21.9815 118.939 20.348C119.259 18.7026 118.194 17.1046 116.56 16.7732C116.383 16.7495 116.217 16.7258 116.039 16.714L116.039 16.714ZM84.0554 16.7259C83.8542 16.7259 83.6529 16.7377 83.4517 16.7732C81.8064 17.1046 80.741 18.7027 81.0724 20.348C81.2263 21.1293 81.688 21.8276 82.3627 22.2775C83.0256 22.7154 83.8423 22.8812 84.6354 22.7273C86.2808 22.3958 87.3461 20.8097 87.0147 19.1643C86.7306 17.7557 85.4995 16.7377 84.0554 16.7259L84.0554 16.7259ZM68.7145 21.3778C68.312 21.3778 67.9096 21.4489 67.5308 21.6027C65.9801 22.2538 65.2462 24.0175 65.8972 25.5682C66.5364 27.1188 68.3002 27.8527 69.8508 27.2135C71.4015 26.5625 72.1354 24.7988 71.4962 23.2481C71.0227 22.1236 69.9337 21.3897 68.7145 21.3778L68.7145 21.3778ZM131.38 21.3778C130.125 21.3542 128.989 22.0881 128.504 23.2481C127.865 24.7988 128.598 26.5625 130.149 27.2135C131.7 27.8527 133.464 27.1188 134.103 25.5682C134.754 24.0175 134.02 22.2538 132.469 21.6027C132.126 21.4607 131.747 21.3897 131.38 21.3778L131.38 21.3778ZM54.581 28.9299C53.9654 28.9299 53.3618 29.1075 52.8528 29.4508C51.4678 30.3741 51.089 32.2562 52.0242 33.6529C52.9475 35.0379 54.8296 35.4167 56.2263 34.4815C57.6231 33.5582 57.9901 31.6761 57.0668 30.2912C56.5104 29.4508 55.5753 28.9418 54.581 28.9299L54.581 28.9299ZM145.502 28.9299C144.472 28.9181 143.501 29.4271 142.933 30.2912C141.998 31.6761 142.377 33.5582 143.762 34.4815C145.159 35.4166 147.041 35.0379 147.964 33.6529C148.414 32.99 148.58 32.1614 148.426 31.3802C148.272 30.5871 147.81 29.8887 147.135 29.4507C146.65 29.1193 146.094 28.9417 145.502 28.9299L145.502 28.9299ZM42.1875 39.1098C41.3707 39.1098 40.5777 39.4295 40.0095 40.0095C38.8258 41.1813 38.8258 43.1108 40.0095 44.2827C41.1813 45.4664 43.1108 45.4664 44.2827 44.2827C45.4664 43.1108 45.4664 41.1813 44.2827 40.0095C43.7263 39.4413 42.9806 39.1217 42.1875 39.1098L42.1875 39.1098ZM157.895 39.1098C157.079 39.1098 156.286 39.4295 155.717 40.0095C154.534 41.1813 154.534 43.1108 155.717 44.2827C156.889 45.4664 158.819 45.4664 159.991 44.2827C161.174 43.1108 161.174 41.1813 159.991 40.0095C159.434 39.4413 158.688 39.1217 157.895 39.1098L157.895 39.1098ZM100 48.4848C93.3357 48.4848 87.8788 53.9418 87.8788 60.6061C87.8788 67.2704 93.3357 72.7273 100 72.7273C106.664 72.7273 112.121 67.2704 112.121 60.6061C112.121 53.9418 106.664 48.4848 100 48.4848L100 48.4848ZM168.063 51.5151C167.448 51.5033 166.856 51.6809 166.347 52.0241C164.962 52.9474 164.583 54.8295 165.518 56.2145C166.442 57.6113 168.324 57.9901 169.709 57.0549C171.106 56.1198 171.484 54.2495 170.549 52.8527C169.993 52.0241 169.058 51.5151 168.063 51.5151L168.063 51.5151ZM32.0194 51.5151C30.9896 51.4915 30.0189 52.0005 29.4508 52.8527C28.5275 54.2495 28.8944 56.1316 30.2912 57.0549C31.688 57.99 33.5582 57.6113 34.4934 56.2263C35.4167 54.8295 35.0497 52.9474 33.6529 52.0241C33.1676 51.7045 32.6113 51.527 32.0194 51.5151L32.0194 51.5151ZM100 54.5455C103.385 54.5455 106.061 57.2206 106.061 60.6061C106.061 63.9915 103.385 66.6667 100 66.6667C96.6146 66.6667 93.9394 63.9915 93.9394 60.6061C93.9394 57.2206 96.6146 54.5455 100 54.5455L100 54.5455ZM175.616 65.6605C175.213 65.6487 174.811 65.7315 174.432 65.8854C172.881 66.5246 172.147 68.3002 172.786 69.839C173.438 71.3897 175.201 72.1236 176.752 71.4844C178.303 70.8452 179.036 69.0696 178.397 67.5189C177.924 66.4063 176.835 65.6605 175.616 65.6605L175.616 65.6605ZM24.4792 65.6605C23.2244 65.6368 22.0881 66.3707 21.6146 67.5308C20.9754 69.0814 21.7093 70.8452 23.2481 71.4962C24.7988 72.1354 26.5743 71.4015 27.2135 69.8508C27.8527 68.3002 27.1188 66.5365 25.5682 65.8972C25.2249 65.7434 24.8579 65.6723 24.4792 65.6605L24.4792 65.6605ZM180.256 81.0132C180.054 81.0014 179.853 81.0251 179.652 81.0606C178.018 81.392 176.953 82.99 177.273 84.6236C177.604 86.2689 179.202 87.3343 180.836 87.0147C182.481 86.6832 183.546 85.0852 183.227 83.4398C182.943 82.0312 181.7 81.0132 180.256 81.0132L180.256 81.0132ZM19.839 81.0133C18.3594 80.9778 17.081 81.9957 16.785 83.4399C16.6312 84.233 16.785 85.0616 17.2348 85.7244C17.6847 86.3992 18.383 86.8608 19.1761 87.0147C19.9574 87.1686 20.7741 87.0028 21.4489 86.5649C22.1117 86.1151 22.5734 85.4167 22.7273 84.6236C23.0587 82.9901 21.9934 81.3921 20.3598 81.0606C20.1823 81.0369 20.0166 81.0133 19.839 81.0133L19.839 81.0133ZM90.9091 84.8485L90.9091 151.515L109.091 151.515L109.091 84.8485L90.9091 84.8485ZM96.9697 90.9091L103.03 90.9091L103.03 145.455L96.9697 145.455L96.9697 90.9091ZM18.1818 96.9697C16.5128 96.9697 15.1515 98.331 15.1515 100C15.1515 101.669 16.5128 103.03 18.1818 103.03C19.8509 103.03 21.2121 101.669 21.2121 100C21.2121 98.331 19.8509 96.9697 18.1818 96.9697L18.1818 96.9697ZM181.818 96.9697C180.149 96.9697 178.788 98.331 178.788 100C178.788 101.669 180.149 103.03 181.818 103.03C183.487 103.03 184.848 101.669 184.848 100C184.848 98.331 183.487 96.9697 181.818 96.9697L181.818 96.9697ZM19.768 112.926C19.5668 112.926 19.3655 112.95 19.1643 112.985C17.5189 113.317 16.4536 114.915 16.785 116.56C17.1165 118.194 18.7027 119.259 20.348 118.939C21.9934 118.608 23.0587 117.01 22.7273 115.376C22.4432 113.956 21.2121 112.938 19.768 112.926L19.768 112.926ZM180.327 112.926C178.847 112.891 177.569 113.92 177.273 115.376C176.953 117.01 178.018 118.608 179.652 118.939C181.297 119.259 182.895 118.194 183.227 116.56C183.546 114.915 182.481 113.317 180.836 112.985C180.67 112.962 180.504 112.938 180.327 112.926L180.327 112.926ZM175.663 128.267C174.408 128.243 173.272 128.989 172.786 130.149C172.147 131.688 172.881 133.464 174.432 134.103C175.982 134.742 177.746 134.008 178.397 132.469C179.036 130.919 178.303 129.143 176.752 128.504C176.409 128.362 176.03 128.279 175.663 128.267L175.663 128.267ZM24.4318 128.279C24.0293 128.279 23.6269 128.35 23.2481 128.504C22.5142 128.812 21.9223 129.403 21.6146 130.149C21.3068 130.895 21.3068 131.723 21.6027 132.469C22.2538 134.02 24.0175 134.754 25.5682 134.103C26.3139 133.807 26.9058 133.215 27.2135 132.469C27.5213 131.723 27.5213 130.895 27.2135 130.149C26.7519 129.025 25.651 128.291 24.4318 128.279L24.4318 128.279ZM168.087 142.424C167.057 142.401 166.087 142.91 165.518 143.762C164.583 145.159 164.962 147.029 166.347 147.964C167.01 148.414 167.839 148.58 168.62 148.414C169.413 148.26 170.111 147.798 170.549 147.124C171.484 145.739 171.106 143.857 169.709 142.933C169.235 142.602 168.667 142.424 168.087 142.424L168.087 142.424ZM32.0076 142.424C31.392 142.412 30.8002 142.59 30.2912 142.933C28.9063 143.868 28.5275 145.739 29.4508 147.135C30.3859 148.52 32.268 148.899 33.6648 147.964C35.0497 147.041 35.4285 145.159 34.4934 143.762C33.937 142.933 33.0019 142.436 32.0076 142.424L32.0076 142.424ZM42.1875 154.83C41.3707 154.818 40.5777 155.137 40.0095 155.717C38.8258 156.889 38.8258 158.819 40.0095 159.991C41.1813 161.174 43.1108 161.174 44.2827 159.991C45.4664 158.819 45.4664 156.889 44.2827 155.717C43.7263 155.149 42.9806 154.83 42.1875 154.83L42.1875 154.83ZM157.895 154.83C157.079 154.818 156.286 155.137 155.717 155.717C154.534 156.889 154.534 158.819 155.717 159.991C156.889 161.174 158.819 161.174 159.991 159.991C161.174 158.819 161.174 156.889 159.991 155.717C159.434 155.149 158.688 154.83 157.895 154.83L157.895 154.83ZM54.6046 164.998C53.5748 164.974 52.6042 165.483 52.036 166.335C51.1008 167.732 51.4796 169.614 52.8764 170.549C54.2614 171.473 56.1435 171.094 57.0668 169.709C58.0019 168.312 57.6231 166.442 56.2382 165.507C55.7528 165.187 55.1847 164.998 54.6046 164.998L54.6046 164.998ZM145.49 164.998C144.875 164.986 144.283 165.163 143.774 165.495C143.099 165.945 142.637 166.643 142.483 167.436C142.33 168.217 142.495 169.046 142.945 169.709C143.868 171.094 145.75 171.473 147.147 170.549C148.532 169.614 148.911 167.732 147.976 166.335C147.431 165.507 146.496 164.998 145.49 164.998L145.49 164.998ZM68.7618 172.55C67.5071 172.526 66.3707 173.272 65.8972 174.432C65.258 175.971 65.9919 177.746 67.5308 178.385C69.0814 179.025 70.857 178.291 71.4962 176.752C72.1354 175.201 71.4015 173.426 69.8508 172.786C69.5076 172.644 69.1406 172.562 68.7618 172.55L68.7618 172.55ZM131.333 172.55C130.93 172.55 130.528 172.633 130.161 172.786C129.415 173.094 128.823 173.686 128.516 174.42C128.208 175.166 128.208 176.006 128.504 176.752C129.155 178.291 130.919 179.025 132.469 178.385C133.215 178.078 133.807 177.486 134.115 176.752C134.422 176.006 134.422 175.166 134.115 174.432C133.653 173.295 132.552 172.562 131.333 172.55L131.333 172.55ZM84.1264 177.214C82.6468 177.178 81.3565 178.208 81.0724 179.652C80.741 181.297 81.8064 182.884 83.4517 183.215C85.0971 183.546 86.6832 182.481 87.0147 180.836C87.3461 179.19 86.2808 177.604 84.6354 177.273C84.4697 177.237 84.2921 177.214 84.1264 177.214L84.1264 177.214ZM115.968 177.225C115.767 177.214 115.566 177.237 115.376 177.273C113.731 177.604 112.666 179.19 112.985 180.836C113.151 181.629 113.613 182.315 114.276 182.765C114.95 183.215 115.767 183.381 116.56 183.227C117.341 183.061 118.04 182.599 118.49 181.937C118.928 181.262 119.093 180.445 118.939 179.652C118.655 178.243 117.412 177.225 115.968 177.225L115.968 177.225ZM100 178.788C98.331 178.788 96.9697 180.149 96.9697 181.818C96.9697 183.487 98.331 184.848 100 184.848C101.669 184.848 103.03 183.487 103.03 181.818C103.03 180.149 101.669 178.788 100 178.788L100 178.788Z" id="path_1" />
    <clipPath id="clip_1">
      <use xlink:href="#path_1" />
    </clipPath>
  </defs>
  <g id="Info">
    <g id="Shape">
      <use stroke="none" fill="#E5BE3F" xlink:href="#path_1" fill-rule="evenodd" />
      <g clip-path="url(#clip_1)">
        <use xlink:href="#path_1" fill="none" stroke="#000000" stroke-width="2" />
      </g>
    </g>
  </g>
</svg>