<?xml version="1.0" encoding="utf-8"?>
<svg width="1206px" height="1207.0001px" viewBox="0 0 1206 1207.0001" version="1.1" xmlns:xlink="http://www.w3.org/1999/xlink" xmlns="http://www.w3.org/2000/svg">
  <g id="No-Products">
    <g id="LEAVES" transform="translate(0 376.2367)">
      <path d="M13.6564 443.085C76.0775 474.793 116.691 517.449 143.046 560.385L138.661 608.523L155.102 581.874C196.108 662.17 182.349 738.341 182.349 738.341L166.678 738.222C89.2009 737.645 23.3132 666.218 12.3387 569.899C12.2171 568.88 12.1089 567.862 12.0008 566.843L40.7279 562.116L9.98026 541.272L9.98026 541.272C7.11498 486.709 13.6564 443.085 13.6564 443.085L13.6564 443.085Z" id="Shape" fill="#1C0E0C" fill-rule="evenodd" stroke="none" />
      <path d="M4.38476 445.173C66.8125 476.881 107.42 519.537 133.802 562.515L129.423 610.645L145.858 583.996C186.87 664.292 182.275 739.504 182.275 739.504L158.19 739.597C80.5172 739.92 14.1024 668.594 3.09406 572.029C2.97916 571.002 2.8643 569.984 2.75617 568.965L31.49 564.238L0.735599 543.411L0.735599 543.411C-2.14994 488.797 4.38476 445.173 4.38476 445.173L4.38476 445.173Z" id="Shape" fill="#E5BE3F" fill-rule="evenodd" stroke="#000000" stroke-width="6" stroke-linecap="round" stroke-linejoin="round" />
      <path d="M3.7901 577.783L102.601 639.671" id="Line" fill="none" fill-rule="evenodd" stroke="#070707" stroke-width="6" stroke-linecap="round" stroke-linejoin="round" />
      <path d="M68.6169 583.894L66.2382 485.258" id="Line" fill="none" fill-rule="evenodd" stroke="#070707" stroke-width="6" stroke-linecap="round" stroke-linejoin="round" />
      <path d="M4.38483 445.173C4.38483 445.173 64.0217 619.82 182.275 739.504" id="Shape" fill="none" fill-rule="evenodd" stroke="#070707" stroke-width="6" stroke-linecap="round" stroke-linejoin="round" />
      <path d="M1200 8.72714C1200 8.72714 1159.31 7.14856 1177.26 92.0699C1195.21 176.991 1120.08 168.623 1106.65 209.14C1099.47 230.808 1137.2 337.133 1072.57 374.739C1019.44 405.658 962.196 437.611 947.653 507.069L931.333 332.932C931.333 332.932 918.866 254.003 975.002 236.07C1059.17 209.14 1014.2 144.486 1037.23 106.803C1062.54 65.4715 1101.99 92.4942 1118.14 66.3881C1129.99 47.2753 1146 -24.6863 1200 8.72714L1200 8.72714Z" id="Shape" fill="#E5BE3F" fill-rule="evenodd" stroke="#000000" stroke-width="6" stroke-linecap="round" stroke-linejoin="round" />
      <path d="M1199.87 8.72717L1199.87 8.72717C1199.04 8.73546 1198.22 8.80917 1197.4 8.94784C1191.21 8.29432 1174.46 7.7342 1163.89 18.8522C1157.91 25.1496 1154.76 34.3156 1154.53 46.0956C1154.07 70.6571 1152.59 87.1389 1146.42 98.7153C1140.07 110.69 1128.98 117.022 1109.33 119.89C1090.41 122.649 1076.22 131.518 1068.11 145.53C1060.68 158.422 1058.52 175.727 1061.8 195.603C1064.74 213.426 1066.43 239.736 1057.79 264.221C1048.37 290.887 1028.93 309.457 999.998 319.387C984.334 324.776 971.366 332.915 961.479 343.575C953.785 351.751 947.7 362.051 943.7 373.67C937.044 393.131 938.706 409.859 938.727 410.028L938.558 410.028L936.774 391.009C937.672 384.575 939.164 378.295 941.22 372.295C945.388 360.213 951.726 349.506 959.736 341.012C969.954 330.03 983.273 321.653 999.33 316.136C1064.91 293.578 1064.99 231.376 1059.2 196.299C1055.76 175.497 1058.1 157.259 1065.95 143.578C1074.46 128.768 1089.36 119.424 1109.03 116.546C1127.81 113.805 1138.32 107.915 1144.17 96.8565C1149.94 85.9761 1151.33 69.9865 1151.79 46.0446C1152.03 33.2461 1155.51 23.2229 1162.12 16.2805C1166.17 12.037 1173.73 6.64773 1186.53 5.49345C1188.95 5.27744 1191.37 5.21513 1193.8 5.30676C1195.8 6.2829 1197.8 7.40319 1199.87 8.72717L1199.87 8.72717Z" id="Shape" fill="#070707" fill-rule="evenodd" stroke="none" />
      <path d="M168.489 472.79C168.489 472.79 83.5175 477.882 71.5294 377.421C60.4805 284.862 112.839 254.648 76.0367 219.698C39.2342 184.748 16.9135 157.598 33.8483 112.609C49.3911 71.2682 40.133 44.9668 16.7919 52.8598C16.7919 52.8598 43.8227 7.46259 81.72 44.0078C117.029 78.0324 76.4084 141.142 123.01 141.914C168.489 142.67 202.602 163.573 195.831 231.877C193.236 257.983 178.126 294.757 202.751 333.942C237.222 388.802 168.489 472.79 168.489 472.79L168.489 472.79Z" id="Shape" fill="none" fill-rule="evenodd" stroke="#070707" stroke-width="6" stroke-linecap="round" stroke-linejoin="round" />
      <path d="M15.8932 51.7225C15.8932 51.7225 84.1123 12.8433 69.7522 108.136C57.0409 192.48 125.03 156.011 143.357 227.54C160.414 294.104 124.848 407.007 196.236 428.954" id="Shape" fill="none" fill-rule="evenodd" stroke="#070707" stroke-width="6" stroke-linecap="round" stroke-linejoin="round" />
      <path d="M1174.74 402.382C1156.75 483.857 1127.63 539.388 1096.62 577.215L1058.04 577.215L1081.02 594.698C1022.16 654.956 960.338 646.469 960.338 646.469L951.735 546.746C970.704 466.654 1025.91 430.474 1076.65 414.425L1083.65 449.739L1096.64 409.001L1096.64 409.001C1139.49 399.182 1174.74 402.382 1174.74 402.382L1174.74 402.382Z" id="Shape" fill="#1C0E0C" fill-rule="evenodd" stroke="none" />
      <path d="M1172.04 391.051C1154.05 472.527 1124.92 528.066 1093.92 565.884L1055.34 565.884L1078.31 583.376C1019.45 643.634 959.432 646.477 959.432 646.477L949.026 535.433C968.001 455.341 1023.2 419.203 1073.94 403.103L1080.94 438.418L1093.94 397.68L1093.94 397.68C1136.78 387.852 1172.04 391.051 1172.04 391.051L1172.04 391.051Z" id="Shape" fill="#F4F1ED" fill-rule="evenodd" stroke="#070707" stroke-width="6" stroke-linecap="round" stroke-linejoin="round" />
      <path d="M955.763 607.496L1172.04 391.051" id="Line" fill="none" fill-rule="evenodd" stroke="#070707" stroke-width="6" stroke-linecap="round" stroke-linejoin="round" />
      <path d="M1067.06 405.378L1029.18 534.016" id="Line" fill="none" fill-rule="evenodd" stroke="#070707" stroke-width="6" stroke-linecap="round" stroke-linejoin="round" />
      <path d="M1082.63 480.53L1147.36 472.79" id="Line" fill="none" fill-rule="evenodd" stroke="#070707" stroke-width="6" stroke-linecap="round" stroke-linejoin="round" />
      <path d="M966.9 595.691L1078.29 583.359" id="Line" fill="none" fill-rule="evenodd" stroke="#070707" stroke-width="6" stroke-linecap="round" stroke-linejoin="round" />
    </g>
    <g id="FLAG" transform="translate(120.73226 0)">
      <path d="M0 158.996L243.649 158.996L243.649 10.193L0 10.193L31.5653 84.5989L0 158.996L0 158.996Z" id="Polygon" fill="#1C0E0C" fill-rule="evenodd" stroke="none" />
      <path d="M7.66333 148.803L251.319 148.803L251.319 0L7.66333 0L39.2286 74.4059L7.66333 148.803L7.66333 148.803Z" id="Polygon" fill="#F4F1ED" fill-rule="evenodd" stroke="#070707" stroke-width="6" stroke-linecap="round" stroke-linejoin="round" />
      <path d="M251.313 0L251.313 606.764" id="Line" fill="none" fill-rule="evenodd" stroke="#070707" stroke-width="8" stroke-linecap="round" stroke-linejoin="round" />
    </g>
    <g id="BIG_PACK" transform="translate(358.44165 49.182457)">
      <path d="M510.343 166.889L434.751 973.515L14.59 973.515L90.1751 166.889L510.343 166.889L510.343 166.889Z" id="Polygon" fill="#C5DCDD" fill-rule="evenodd" stroke="none" />
      <path d="M600.97 973.515L420.168 973.515L496.814 155.559L524.324 155.559L600.97 973.515L600.97 973.515Z" id="Polygon" fill="none" fill-rule="evenodd" stroke="#070707" stroke-width="6" stroke-linecap="round" stroke-linejoin="round" />
      <path d="M496.814 155.559L420.168 973.515L0 973.515L76.6528 155.559L496.814 155.559L496.814 155.559Z" id="Polygon" fill="none" fill-rule="evenodd" stroke="#070707" stroke-width="6" stroke-linecap="round" stroke-linejoin="round" />
      <path d="M330.628 0L330.628 0C367.905 -1.29502e-05 398.124 37.9522 398.124 84.7686L398.124 155.559L263.112 155.559L263.112 84.7686C263.112 62.2821 270.226 40.7171 282.888 24.8191C295.55 8.9212 312.723 -0.00674705 330.628 0L330.628 0Z" id="Shape" fill="#F4F1ED" fill-rule="evenodd" stroke="#070707" stroke-width="6" stroke-linecap="round" stroke-linejoin="round" />
      <path d="M285.068 0L285.068 0C322.345 -1.29502e-05 352.564 37.9522 352.564 84.7686L352.564 155.559L217.571 155.559L217.571 84.7686C217.558 37.9814 247.767 0.0161619 285.044 0L285.068 0Z" id="Shape" fill="none" fill-rule="evenodd" stroke="#070707" stroke-width="6" stroke-linecap="round" stroke-linejoin="round" />
      <path d="M443.184 405.282L381.642 405.282L389.481 292.701C390.968 271.356 405.949 254.051 422.952 254.051L422.952 254.051C439.948 254.051 452.517 271.356 451.03 292.701L443.184 405.282Z" id="Shape" fill="#FFFFFF" fill-rule="evenodd" stroke="none" />
      <path d="M437.778 398.484L376.229 398.484L384.075 285.903C385.561 264.558 400.543 247.253 417.539 247.253L417.539 247.253C434.535 247.253 447.104 264.558 445.617 285.903L437.778 398.484Z" id="Shape" fill="none" fill-rule="evenodd" stroke="#070707" stroke-width="6" stroke-linecap="round" stroke-linejoin="round" />
      <path d="M408.661 278.65C408.661 274.042 411.646 270.306 415.329 270.306C419.012 270.306 421.998 274.042 421.998 278.65C421.998 283.257 419.012 286.993 415.329 286.993C411.646 286.993 408.661 283.257 408.661 278.65Z" id="Oval" fill="none" fill-rule="evenodd" stroke="#070707" stroke-width="6" stroke-linecap="round" stroke-linejoin="round" />
      <path d="M415.566 275.566L424.351 149.745C424.964 140.898 430.863 134.109 437.934 134.112L437.934 134.112C441.55 134.11 445.018 135.912 447.576 139.123C450.134 142.334 451.571 146.689 451.571 151.231L451.571 155.567" id="Shape" fill="none" fill-rule="evenodd" stroke="#070707" stroke-width="6" stroke-linecap="round" stroke-linejoin="round" />
      <path d="M411.498 357.848C413.066 357.537 414.521 356.631 415.667 355.251C416.658 354.04 417.27 352.423 417.391 350.693C417.591 349.123 417.196 347.525 416.323 346.373C415.206 345.18 413.893 344.311 412.478 343.827L409.315 342.639C407.4 341.996 405.543 341.106 403.774 339.982C402.333 339.041 401.137 337.601 400.327 335.832C399.449 333.699 399.119 331.277 399.381 328.898C399.553 325.439 400.78 322.195 402.807 319.843C404.839 317.483 407.632 316.114 411.187 315.735L414.431 315.735C416.012 315.895 417.563 316.371 419.026 317.144C420.289 317.855 421.387 318.959 422.216 320.352C422.871 321.372 423.392 322.518 423.756 323.747C424.076 324.754 424.215 325.838 424.162 326.921C424.085 327.994 423.681 328.989 423.033 329.696C422.401 330.452 421.561 330.872 420.688 330.867C419.019 330.867 417.985 329.738 417.681 327.472C417.396 324.934 415.947 322.845 413.985 322.143L410.748 322.015C409.484 322.428 408.297 323.149 407.254 324.137C406.338 325.144 405.801 326.589 405.774 328.117C405.584 329.493 405.899 330.904 406.632 331.954C407.58 333.013 408.691 333.816 409.896 334.313L413.059 335.501C415.118 336.231 416.753 336.896 417.965 337.496C419.166 338.049 420.261 338.91 421.181 340.025C422.155 341.206 422.892 342.66 423.331 344.268C423.793 345.999 423.956 347.833 423.81 349.649C423.642 352.088 423.009 354.44 421.965 356.507C420.869 358.675 419.359 360.466 417.573 361.718C415.582 363.116 413.368 363.939 411.092 364.128L407.842 364.196C406.072 363.985 404.346 363.388 402.74 362.431C401.4 361.611 400.209 360.456 399.239 359.036C398.387 357.816 397.735 356.397 397.32 354.86C396.952 353.496 396.81 352.052 396.901 350.617C396.989 349.542 397.4 348.549 398.05 347.842C398.714 347.034 399.606 346.589 400.53 346.602C401.202 346.569 401.865 346.807 402.422 347.281C402.926 347.733 403.272 348.411 403.389 349.174C403.637 350.539 403.946 351.885 404.315 353.205C404.607 354.171 405.069 355.041 405.666 355.751C406.417 356.597 407.318 357.202 408.295 357.517L411.498 357.848Z" id="Shape" fill="#1C0E0C" fill-rule="evenodd" stroke="none" />
      <path d="M409.133 368.881L409.018 368.881C408.66 368.842 408.329 368.626 408.099 368.281C407.868 367.935 407.756 367.489 407.788 367.039L411.66 311.424C411.725 310.486 412.383 309.793 413.13 309.875C413.876 309.957 414.428 310.783 414.363 311.721L410.491 367.336C410.428 368.217 409.837 368.889 409.133 368.881L409.133 368.881Z" id="Shape" fill="#1C0E0C" fill-rule="evenodd" stroke="none" />
    </g>
    <g id="PRESENT_BOX" transform="translate(168.4891 408.2379)">
      <path d="M182.384 200.674L133.323 200.674C133.323 200.674 86.1879 148.249 65.5904 117.331C62.7786 113.079 60.2088 108.584 57.9001 103.879C48.3447 84.4182 59.3868 59.322 77.5921 59.1947L78.1192 59.1947C127.917 59.1946 182.411 172.488 182.384 200.674L182.384 200.674Z" id="Shape" fill="#1C0E0C" fill-rule="evenodd" stroke="none" />
      <path d="M209.435 200.674L174.917 200.674C174.917 200.674 141.763 163.797 127.281 142.037C125.302 139.048 123.495 135.886 121.875 132.574C118.773 126.239 118.629 118.296 121.499 111.791C124.369 105.285 129.807 101.227 135.729 101.171L136.067 101.171C171.112 101.138 209.455 180.848 209.435 200.674L209.435 200.674Z" id="Shape" fill="#F4F1ED" fill-rule="evenodd" stroke="none" />
      <path d="M106.819 0.00595709C189.398 -1.08041 218.126 147.129 216.294 200.674L182.384 200.674C182.384 172.488 127.917 59.1946 78.1192 59.1946C60.4545 59.1946 50.0477 78.9609 55.3728 96.8601C55.3728 96.8601 21.1449 1.13475 106.819 0.00595709L106.819 0.00595709Z" id="Shape" fill="#E5BE3F" fill-rule="evenodd" stroke="#000000" stroke-width="6" stroke-linecap="round" stroke-linejoin="round" />
      <path d="M424.074 175.628C431 154.784 421.675 130.766 404.402 124.222C324.309 93.8812 242.419 200.674 242.419 200.674L189.953 200.674C189.953 200.674 264.355 45.0977 388.224 68.2249C415.343 73.2832 450.976 106.086 424.074 175.628L424.074 175.628Z" id="Shape" fill="#E5BE3F" fill-rule="evenodd" stroke="#000000" stroke-width="6" stroke-linecap="round" stroke-linejoin="round" />
      <path d="M423.945 175.985C420.222 186.916 415.667 197.152 412.457 200.674L366.917 200.674C366.917 200.674 377.824 196.04 388.352 175.985C401.145 151.636 395.225 121.498 377.689 119.436C386.69 119.784 395.651 120.904 404.422 124.222C421.769 130.808 431.108 155.056 423.945 175.985L423.945 175.985Z" id="Shape" fill="#1C0E0C" fill-rule="evenodd" stroke="none" />
      <path d="M63.5764 272.423L63.5764 235.7C63.5764 225.559 66.4312 216.903 72.1408 209.732C77.8504 202.562 84.7425 198.976 92.817 198.976L460.707 198.976C468.782 198.976 475.674 202.562 481.383 209.732C487.093 216.903 489.948 225.559 489.948 235.7L489.948 661.011L489.948 697.734C489.948 707.875 487.093 716.531 481.383 723.702C475.674 730.872 468.782 734.458 460.707 734.458L122.058 734.458L92.817 734.458C84.7425 734.458 77.8504 730.872 72.1408 723.702C66.4312 716.531 63.5764 707.875 63.5764 697.734L63.5764 272.423Z" id="Rectangle" fill="#E5BE3F" fill-rule="evenodd" stroke="#000000" stroke-width="6" stroke-linecap="round" stroke-linejoin="round" />
      <path d="M0 272.423L0 235.7C0 225.559 2.85479 216.903 8.56438 209.732C14.274 202.562 21.1661 198.976 29.2406 198.976L385.616 198.976C393.69 198.976 400.582 202.562 406.292 209.732C412.001 216.903 414.856 225.559 414.856 235.7L414.856 697.734C414.856 707.875 412.001 716.531 406.292 723.702C400.582 730.872 393.69 734.458 385.616 734.458L58.4813 734.458L29.2406 734.458C21.1661 734.458 14.274 730.872 8.56438 723.702C2.85479 716.531 0 707.875 0 697.734L0 272.423Z" id="Rectangle" fill="#F4F1ED" fill-rule="evenodd" stroke="#070707" stroke-width="6" stroke-linecap="round" stroke-linejoin="round" />
      <path d="M177.046 263.978C169.433 254.413 157.983 251.55 148.034 256.725C138.085 261.899 131.599 274.091 131.6 287.615L131.6 385.012L184.844 385.012L184.844 287.615C184.854 278.744 182.047 270.237 177.045 263.977L177.046 263.978ZM158.225 288.591C155.899 288.594 153.8 286.837 152.908 284.138C152.015 281.44 152.506 278.332 154.15 276.264C155.794 274.197 158.268 273.577 160.418 274.695C162.568 275.812 163.97 278.446 163.97 281.368C163.973 283.285 163.37 285.125 162.292 286.483C161.215 287.841 159.752 288.606 158.226 288.608L158.225 288.591Z" id="Shape" fill="#F4F1ED" fill-rule="evenodd" stroke="none" />
      <path d="M173.437 257.749C165.822 248.18 154.367 245.319 144.416 250.5C134.466 255.681 127.982 267.883 127.992 281.411L127.992 378.808L181.236 378.808L181.236 281.411C181.251 272.534 178.444 264.016 173.438 257.749L173.437 257.749ZM154.617 282.361C151.445 282.361 148.873 279.131 148.873 275.147C148.873 271.163 151.445 267.933 154.617 267.933C157.789 267.933 160.361 271.163 160.361 275.147C160.365 279.136 157.793 282.374 154.617 282.378L154.617 282.361Z" id="Shape" fill="none" fill-rule="evenodd" stroke="#070707" stroke-width="6" stroke-linecap="round" stroke-linejoin="round" />
      <path d="M154.616 272.44L154.616 197.304C154.614 192.875 156.014 188.622 158.509 185.485C161.004 182.349 164.389 180.586 167.919 180.585L167.919 180.585C175.271 180.585 181.232 188.07 181.232 197.304L181.232 199.002" id="Shape" fill="none" fill-rule="evenodd" stroke="#070707" stroke-width="6" stroke-linecap="round" stroke-linejoin="round" />
      <path d="M165.436 331.832C164.956 330.436 164.236 329.189 163.327 328.183C162.48 327.209 161.494 326.443 160.421 325.926C159.333 325.408 157.874 324.839 156.049 324.228L155.921 324.228L155.921 312.652L156.049 312.652C157.799 313.274 159.144 315.037 159.563 317.26C159.996 319.229 160.915 320.205 162.374 320.205C163.11 320.217 163.817 319.853 164.334 319.195C164.853 318.567 165.144 317.699 165.138 316.793C165.114 315.839 164.93 314.902 164.598 314.044C164.213 312.982 163.708 311.995 163.097 311.116C162.294 309.917 161.281 308.967 160.138 308.34C158.843 307.676 157.476 307.264 156.083 307.118L155.955 307.118L155.955 303.596C155.955 302.659 155.349 301.899 154.603 301.899C153.857 301.899 153.251 302.659 153.251 303.596L153.251 307.127C150.21 307.461 147.886 308.643 146.277 310.674C144.647 312.756 143.769 315.589 143.851 318.508C143.778 320.616 144.212 322.704 145.095 324.5C145.898 326.038 147.013 327.28 148.325 328.098C149.904 329.061 151.554 329.829 153.251 330.39L153.251 343.298C152.385 343.024 151.581 342.504 150.9 341.779C150.331 341.171 149.871 340.419 149.548 339.573C149.152 338.434 148.804 337.27 148.508 336.085C148.352 335.416 148.015 334.836 147.555 334.447C147.054 334.041 146.467 333.837 145.872 333.861C145.096 333.836 144.347 334.224 143.811 334.93C143.289 335.559 142.99 336.424 142.98 337.332C142.988 338.599 143.197 339.851 143.595 341.015C144.059 342.352 144.706 343.575 145.507 344.631C146.431 345.84 147.526 346.822 148.737 347.525C150.159 348.345 151.68 348.861 153.238 349.053L153.238 351.709C153.238 352.647 153.843 353.406 154.589 353.406C155.336 353.406 155.941 352.647 155.941 351.709L155.941 349.002L156.069 349.002C157.994 348.852 159.865 348.137 161.53 346.914C162.998 345.837 164.204 344.276 165.017 342.399C165.805 340.576 166.212 338.532 166.199 336.458C166.202 334.867 165.942 333.292 165.436 331.833L165.436 331.832ZM150.258 321.139C148.924 319.173 148.953 316.272 150.325 314.349C151.167 313.489 152.147 312.867 153.197 312.524L153.197 323.167C152.123 322.734 151.125 322.046 150.258 321.139L150.258 321.139ZM159.475 341.338C158.554 342.544 157.343 343.337 156.029 343.595L155.9 343.595L155.9 331.391L156.029 331.391C157.301 331.83 158.488 332.592 159.516 333.632C160.33 334.596 160.763 335.963 160.698 337.366C160.722 338.836 160.291 340.259 159.495 341.338L159.475 341.338Z" id="Shape" fill="#1C0E0C" fill-rule="evenodd" stroke="none" />
    </g>
    <g id="ABSTRACT_ELEMENTS" transform="translate(121.30007 419.54858)">
      <path d="M0 26.8021C0 11.9997 9.55463 0 21.3409 0C33.1271 0 42.6817 11.9997 42.6817 26.8021C42.6817 41.6044 33.1271 53.6041 21.3409 53.6041C9.55463 53.6041 0 41.6044 0 26.8021Z" id="Circle" fill="#F4F1ED" fill-rule="evenodd" stroke="#070707" stroke-width="6" stroke-linecap="round" stroke-linejoin="round" />
      <path d="M789.315 684.361C789.315 669.559 798.87 657.559 810.656 657.559C822.442 657.559 831.997 669.559 831.997 684.361C831.997 699.164 822.442 711.163 810.656 711.163C798.87 711.163 789.315 699.164 789.315 684.361Z" id="Circle" fill="#F4F1ED" fill-rule="evenodd" stroke="#070707" stroke-width="6" stroke-linecap="round" stroke-linejoin="round" />
      <path d="M867.339 124.777C867.339 118.524 871.375 113.455 876.354 113.455C881.333 113.455 885.369 118.524 885.369 124.777C885.369 131.029 881.333 136.098 876.354 136.098C871.375 136.098 867.339 131.029 867.339 124.777Z" id="Circle" fill="#F4F1ED" fill-rule="evenodd" stroke="#070707" stroke-width="6" stroke-linecap="round" stroke-linejoin="round" />
      <path d="M834.328 724.844C834.328 720.152 837.356 716.349 841.092 716.349C844.828 716.349 847.857 720.152 847.857 724.844C847.857 729.536 844.828 733.34 841.092 733.34C837.356 733.34 834.328 729.536 834.328 724.844Z" id="Circle" fill="#F4F1ED" fill-rule="evenodd" stroke="#070707" stroke-width="6" stroke-linecap="round" stroke-linejoin="round" />
      <path d="M10.184 458.207C10.184 453.515 13.2125 449.711 16.9484 449.711C20.6843 449.711 23.7129 453.515 23.7129 458.207C23.7129 462.899 20.6843 466.702 16.9484 466.702C13.2125 466.702 10.184 462.899 10.184 458.207Z" id="Circle" fill="#C5DCDD" fill-rule="evenodd" stroke="none" />
    </g>
    <g id="BOX_SHOE" transform="translate(337.8509 749.5314)">
      <g id="BOX" transform="translate(0 190.23894)">
        <path d="M74.1524 68.0407L533.981 68.0407L533.981 260.23L74.1524 260.23L74.1524 68.0407Z" id="Rectangle" fill="#F4F1ED" fill-rule="evenodd" stroke="#070707" stroke-width="6" stroke-linecap="round" stroke-linejoin="round" />
        <path d="M17.8607 68.0407L447.922 68.0407L447.922 260.23L17.8607 260.23L17.8607 68.0407Z" id="Rectangle" fill="#F4F1ED" fill-rule="evenodd" stroke="#070707" stroke-width="6" stroke-linecap="round" stroke-linejoin="round" />
        <path d="M16.6848 13.0277L535.502 13.0277L535.502 81.0683L16.6848 81.0683L16.6848 13.0277Z" id="Rectangle" fill="#1C0E0C" fill-rule="evenodd" stroke="none" />
        <path d="M55.0618 0L553.071 0L553.071 68.0406L55.0618 68.0406L55.0618 0Z" id="Rectangle" fill="#F4F1ED" fill-rule="evenodd" stroke="#070707" stroke-width="6" stroke-linecap="round" stroke-linejoin="round" />
        <path d="M0 0L465.769 0L465.769 68.0406L0 68.0406L0 0Z" id="Rectangle" fill="#F4F1ED" fill-rule="evenodd" stroke="#070707" stroke-width="6" stroke-linecap="round" stroke-linejoin="round" />
      </g>
      <g id="SHOE" transform="translate(130.6064 0)">
        <path d="M349.245 139.079C348.928 143.747 342.231 166 342.231 166L0 151.445L0 127.452C0 87.2401 10.8799 52.511 16.6443 37.4296C25.5307 14.1412 37.8364 19.9464 37.8364 19.9464C37.8364 19.9464 71.3074 61.0322 108.846 61.0322C116.084 61.0322 121.274 56.22 124.97 49.2182C127.188 44.8768 128.914 40.1696 130.099 35.2315C131.663 28.8025 132.762 22.2098 133.384 15.5332C133.952 9.79786 136.713 4.77142 140.78 2.067C144.847 -0.637418 149.709 -0.679583 153.806 1.95402C168.544 11.468 186.439 32.762 234.33 65.2674C236.736 66.9082 239.214 68.5689 241.764 70.2493C300.056 108.729 348.624 94.4032 349.245 139.079L349.245 139.079Z" id="Shape" fill="#F4F1ED" fill-rule="evenodd" stroke="#070707" stroke-width="6" stroke-linecap="round" stroke-linejoin="round" />
        <path d="M310.76 187.26C320.674 187.26 332.757 181.625 339.251 172.509C345.745 163.394 351.199 146.76 348.151 128.886L347.88 128.886C344.61 150.952 328.851 161.773 316.998 161.773L20.2935 150.842C11.0895 150.842 3.21671 142.864 0.0203247 131.568L0.0203247 156.596C0.0203247 173.57 9.79872 187.26 21.868 187.26L310.76 187.26Z" id="Shape" fill="#F4F1ED" fill-rule="evenodd" stroke="#070707" stroke-width="6" stroke-linecap="round" stroke-linejoin="round" />
        <path d="M124.977 49.2183C122.375 62.2629 105.508 76.1562 56.5688 57.926C15.813 42.7427 0 106.531 0 131.568L0 127.443C0 87.2318 10.8799 52.5028 16.6443 37.4214C25.5307 14.133 37.8364 19.9381 37.8364 19.9381C37.8364 19.9381 71.3074 61.0239 108.846 61.0239C116.084 61.0239 121.274 56.2117 124.97 49.2099L124.977 49.2183Z" id="Shape" fill="#F46F40" fill-rule="evenodd" stroke="#000000" stroke-width="6" stroke-linecap="round" stroke-linejoin="round" />
        <path d="M247.366 73.8308C173.248 41.9959 136.155 27.5849 130.1 35.2232C131.663 28.7942 132.762 22.2015 133.384 15.5249C133.952 9.78953 136.713 4.76309 140.78 2.05867C144.847 -0.645749 149.709 -0.687915 153.806 1.94569C168.578 11.4934 193.183 39.7891 247.366 73.8308L247.366 73.8308Z" id="Shape" fill="#F4F1ED" fill-rule="evenodd" stroke="#070707" stroke-width="6" stroke-linecap="round" stroke-linejoin="round" />
        <path d="M171.686 42.0128L181.296 23.6638C182.429 21.4967 184.221 20.0088 186.252 19.5483C188.283 19.0878 190.376 19.6951 192.041 21.2281L192.041 21.2281C195.095 24.0294 196.018 29.2441 194.196 33.4069L192.919 36.3434" id="Shape" fill="none" fill-rule="evenodd" stroke="#070707" stroke-width="6" stroke-linecap="round" stroke-linejoin="round" />
        <path d="M193.723 50.0245L200.528 36.6319C201.517 34.738 203.082 33.4374 204.857 33.0345C206.632 32.6318 208.46 33.1622 209.915 34.5016L209.915 34.5016C212.581 36.9524 213.385 41.5079 211.793 45.1444L210.671 47.6905" id="Shape" fill="none" fill-rule="evenodd" stroke="#070707" stroke-width="6" stroke-linecap="round" stroke-linejoin="round" />
        <path d="M227.525 60.4381C229.206 56.5896 228.356 51.7727 225.539 49.1758L225.539 49.1758C223.998 47.7618 222.064 47.2028 220.186 47.6295C218.309 48.0562 216.653 49.4311 215.605 51.4335L211.3 58.5202" id="Shape" fill="none" fill-rule="evenodd" stroke="#070707" stroke-width="6" stroke-linecap="round" stroke-linejoin="round" />
        <path d="M247.231 73.7459C211.545 81.8558 182.704 114.905 173.011 158.794L159.354 158.217C168.167 113.18 194.705 76.9297 229.702 62.1271C231.215 63.1737 232.758 64.229 234.331 65.2927C236.736 66.9336 239.214 68.5942 241.764 70.2746C243.589 71.4884 245.42 72.6341 247.231 73.7459L247.231 73.7459Z" id="Shape" fill="#F46F40" fill-rule="evenodd" stroke="#000000" stroke-width="6" stroke-linecap="round" stroke-linejoin="round" />
        <path d="M281.08 90.2191L281.08 92.4682C245.517 92.518 213.349 118.997 199.123 159.932L184.932 159.321C196.97 119.363 223.92 89.4281 256.969 79.3049C264.847 83.4761 272.895 87.1194 281.08 90.2191L281.08 90.2191Z" id="Shape" fill="#F46F40" fill-rule="evenodd" stroke="#000000" stroke-width="6" stroke-linecap="round" stroke-linejoin="round" />
      </g>
    </g>
  </g>
</svg>