<?xml version="1.0" encoding="utf-8"?>
<svg width="600px" height="450px" viewBox="0 0 600 450" version="1.1" xmlns:xlink="http://www.w3.org/1999/xlink" xmlns="http://www.w3.org/2000/svg">
  <defs>
    <path d="M600 0L600 0L600 450L0 450L0 0L600 0Z" id="path_1" />
    <clipPath id="clip_1">
      <use xlink:href="#path_1" />
    </clipPath>
  </defs>
  <g id="No Products" clip-path="url(#clip_1)">
    <path d="M600 0L600 0L600 450L0 450L0 0L600 0Z" id="No-Products" fill="none" stroke="none" />
    <g id="Layer_1" transform="translate(100.195335 36.20819)">
      <g id="LEAVES" transform="translate(0 117.66996)">
        <path d="M4.60893 138.577C25.6756 148.494 39.3825 161.835 48.2772 175.263L46.797 190.319L52.346 181.984C66.1851 207.097 61.5417 230.92 61.5417 230.92L56.2528 230.883C30.1047 230.702 7.86804 208.363 4.1642 178.239C4.12315 177.92 4.08666 177.602 4.05017 177.283L13.7454 175.805L3.36824 169.286L3.36824 169.286C2.40123 152.221 4.60893 138.577 4.60893 138.577L4.60893 138.577Z" id="Shape" fill="#1C0E0C" stroke="none" />
        <path d="M1.47983 139.23C22.5488 149.147 36.2534 162.488 45.1572 175.929L43.6793 190.982L49.226 182.648C63.0675 207.761 61.5166 231.284 61.5166 231.284L53.3882 231.313C27.174 231.414 4.75946 209.106 1.04422 178.905C1.00545 178.584 0.966681 178.265 0.930189 177.947L10.6277 176.468L0.24826 169.955L0.24826 169.955C-0.72559 152.874 1.47983 139.23 1.47983 139.23L1.47983 139.23Z" id="Shape" fill="#E5BE3F" stroke="#000000" stroke-width="6" stroke-linecap="round" stroke-linejoin="round" />
        <path d="M1.27912 180.705L34.6273 200.06" id="Line" fill="none" fill-rule="evenodd" stroke="#070707" stroke-width="6" stroke-linecap="round" stroke-linejoin="round" />
        <path d="M23.1577 182.616L22.3549 151.767" id="Line" fill="none" fill-rule="evenodd" stroke="#070707" stroke-width="6" stroke-linecap="round" stroke-linejoin="round" />
        <path d="M1.47982 139.23C1.47982 139.23 21.6069 193.852 61.5166 231.284" id="Shape" fill="none" stroke="#070707" stroke-width="6" stroke-linecap="round" stroke-linejoin="round" />
        <path d="M404.992 2.72946C404.992 2.72946 391.26 2.23575 397.318 28.7953C403.375 55.3549 378.019 52.7377 373.487 65.4097C371.065 72.1863 383.798 105.44 361.985 117.202C344.055 126.872 324.735 136.865 319.827 158.589L314.319 104.126C314.319 104.126 310.111 79.4406 329.057 73.8319C357.463 65.4097 342.285 45.1887 350.06 33.4033C358.601 20.4765 371.916 28.928 377.366 20.7632C381.364 14.7856 386.767 -7.72078 404.992 2.72946L404.992 2.72946Z" id="Shape" fill="#E5BE3F" stroke="#000000" stroke-width="6" stroke-linecap="round" stroke-linejoin="round" />
        <path d="M404.949 2.72945L404.949 2.72945C404.67 2.73205 404.391 2.7551 404.114 2.79847C402.025 2.59408 396.371 2.4189 392.804 5.89611C390.786 7.86564 389.723 10.7324 389.648 14.4166C389.49 22.0984 388.993 27.2531 386.911 30.8737C384.765 34.619 381.022 36.5992 374.392 37.4963C368.006 38.359 363.217 41.1328 360.48 45.5152C357.971 49.5472 357.244 54.9594 358.35 61.1759C359.342 66.7501 359.912 74.9786 356.997 82.6365C353.818 90.9765 347.257 96.7842 337.493 99.8899C332.206 101.575 327.83 104.121 324.493 107.455C321.896 110.012 319.843 113.233 318.493 116.867C316.246 122.954 316.807 128.185 316.814 128.238L316.757 128.238L316.155 122.29C316.458 120.278 316.962 118.314 317.656 116.437C319.062 112.659 321.201 109.31 323.905 106.653C327.353 103.218 331.848 100.599 337.267 98.8732C359.401 91.8179 359.426 72.364 357.472 61.3935C356.313 54.8877 357.102 49.1835 359.753 44.9046C362.624 40.2728 367.653 37.3503 374.29 36.4505C380.628 35.5931 384.174 33.751 386.149 30.2923C388.097 26.8894 388.567 21.8886 388.722 14.4007C388.804 10.3979 389.976 7.26307 392.207 5.0918C393.575 3.76461 396.127 2.0791 400.447 1.71809C401.263 1.65053 402.081 1.63104 402.899 1.6597C403.574 1.965 404.251 2.31537 404.949 2.72945L404.949 2.72945Z" id="Shape" fill="#070707" stroke="none" />
        <path d="M56.864 147.868C56.864 147.868 28.1866 149.46 24.1407 118.04C20.4118 89.0919 38.0825 79.6424 25.6619 68.7117C13.2413 57.781 5.70822 49.2897 11.4236 35.2189C16.6692 22.2895 13.5446 14.0636 5.66717 16.5322C5.66717 16.5322 14.7899 2.33397 27.58 13.7637C39.4966 24.405 25.7874 44.1429 41.515 44.3844C56.864 44.6207 68.3769 51.1584 66.0916 72.5207C65.2158 80.6855 60.1162 92.1869 68.427 104.442C80.0608 121.6 56.864 147.868 56.864 147.868L56.864 147.868Z" id="Shape" fill="none" stroke="#070707" stroke-width="6" stroke-linecap="round" stroke-linejoin="round" />
        <path d="M5.36384 16.1765C5.36384 16.1765 28.3873 4.01682 23.5409 33.82C19.2509 60.1991 42.1969 48.7933 48.3821 71.1643C54.1385 91.9825 42.1353 127.294 66.2285 134.158" id="Shape" fill="none" stroke="#070707" stroke-width="6" stroke-linecap="round" stroke-linejoin="round" />
        <path d="M396.467 125.847C390.396 151.329 380.566 168.696 370.102 180.527L357.082 180.527L364.836 185.995C344.972 204.841 324.108 202.186 324.108 202.186L321.205 170.998C327.606 145.948 346.24 134.633 363.361 129.613L365.726 140.658L370.109 127.917L370.109 127.917C384.571 124.846 396.467 125.847 396.467 125.847L396.467 125.847Z" id="Shape" fill="#1C0E0C" stroke="none" />
        <path d="M395.555 122.303C389.484 147.785 379.652 165.155 369.19 176.983L356.17 176.983L363.924 182.454C344.059 201.3 323.802 202.189 323.802 202.189L320.29 167.459C326.694 142.41 345.325 131.108 362.448 126.072L364.811 137.117L369.197 124.376L369.197 124.376C383.656 121.303 395.555 122.303 395.555 122.303L395.555 122.303Z" id="Shape" fill="#F4F1ED" stroke="#070707" stroke-width="6" stroke-linecap="round" stroke-linejoin="round" />
        <path d="M322.564 189.998L395.555 122.303" id="Line" fill="none" fill-rule="evenodd" stroke="#070707" stroke-width="6" stroke-linecap="round" stroke-linejoin="round" />
        <path d="M360.127 126.784L347.341 167.016" id="Line" fill="none" fill-rule="evenodd" stroke="#070707" stroke-width="6" stroke-linecap="round" stroke-linejoin="round" />
        <path d="M365.379 150.288L387.226 147.867" id="Line" fill="none" fill-rule="evenodd" stroke="#070707" stroke-width="6" stroke-linecap="round" stroke-linejoin="round" />
        <path d="M326.322 186.305L363.917 182.449" id="Line" fill="none" fill-rule="evenodd" stroke="#070707" stroke-width="6" stroke-linecap="round" stroke-linejoin="round" />
      </g>
      <g id="FLAG" transform="translate(40.746376 0)">
        <path d="M0 49.7269L82.2301 49.7269L82.2301 3.1879L0 3.1879L10.6531 26.4587L0 49.7269L0 49.7269Z" id="Polygon" fill="#1C0E0C" fill-rule="evenodd" stroke="none" />
        <path d="M2.58631 46.539L84.8187 46.539L84.8187 0L2.58631 0L13.2394 23.2708L2.58631 46.539L2.58631 46.539Z" id="Polygon" fill="#F4F1ED" fill-rule="evenodd" stroke="#070707" stroke-width="6" stroke-linecap="round" stroke-linejoin="round" />
        <path d="M84.8164 0L84.8164 189.769" id="Line" fill="none" fill-rule="evenodd" stroke="#070707" stroke-width="8" stroke-linecap="round" stroke-linejoin="round" />
      </g>
      <g id="BIG_PACK" transform="translate(120.97175 15.382068)">
        <path d="M172.237 52.1954L146.726 304.472L4.924 304.472L30.4335 52.1954L172.237 52.1954L172.237 52.1954Z" id="Polygon" fill="#C5DCDD" fill-rule="evenodd" stroke="none" />
        <path d="M202.824 304.472L141.804 304.472L167.671 48.6519L176.956 48.6519L202.824 304.472L202.824 304.472Z" id="Polygon" fill="none" fill-rule="evenodd" stroke="#070707" stroke-width="6" stroke-linecap="round" stroke-linejoin="round" />
        <path d="M167.671 48.6519L141.804 304.472L0 304.472L25.8698 48.6519L167.671 48.6519L167.671 48.6519Z" id="Polygon" fill="none" fill-rule="evenodd" stroke="#070707" stroke-width="6" stroke-linecap="round" stroke-linejoin="round" />
        <path d="M111.585 0L111.585 0C124.166 -4.05024e-06 134.364 11.8697 134.364 26.5118L134.364 48.6519L88.7984 48.6519L88.7984 26.5118C88.7984 19.4791 91.1993 12.7345 95.4728 7.76231C99.7463 2.79015 105.542 -0.00211018 111.585 0L111.585 0Z" id="Shape" fill="#F4F1ED" stroke="#070707" stroke-width="6" stroke-linecap="round" stroke-linejoin="round" />
        <path d="M96.2084 0L96.2084 0C108.789 -4.05024e-06 118.988 11.8697 118.988 26.5118L118.988 48.6519L73.4289 48.6519L73.4289 26.5118C73.4246 11.8789 83.6198 0.0050547 96.2005 0L96.2084 0Z" id="Shape" fill="none" stroke="#070707" stroke-width="6" stroke-linecap="round" stroke-linejoin="round" />
        <path d="M149.572 126.754L128.802 126.754L131.447 91.5438C131.949 84.8681 137.005 79.4558 142.744 79.4558L142.744 79.4558C148.479 79.4558 152.722 84.8681 152.22 91.5438L149.572 126.754Z" id="Shape" fill="#FFFFFF" stroke="none" />
        <path d="M147.747 124.628L126.975 124.628L129.623 89.4176C130.124 82.7419 135.181 77.3296 140.917 77.3296L140.917 77.3296C146.653 77.3296 150.895 82.7419 150.393 89.4176L147.747 124.628Z" id="Shape" fill="none" stroke="#070707" stroke-width="6" stroke-linecap="round" stroke-linejoin="round" />
        <path d="M138.479 89.0342C137.659 88.0377 137.752 86.3859 138.687 85.3448C139.621 84.3037 141.043 84.2675 141.863 85.264C142.683 86.2605 142.589 87.9123 141.655 88.9534C140.721 89.9945 139.299 90.0307 138.479 89.0342Z" id="Oval" fill="none" fill-rule="evenodd" stroke="#070707" stroke-width="6" stroke-linecap="round" stroke-linejoin="round" />
        <path d="M140.251 86.1846L143.216 46.8336C143.423 44.0667 145.413 41.9434 147.8 41.9443L147.8 41.9443C149.02 41.9436 150.191 42.5073 151.054 43.5114C151.917 44.5156 152.402 45.8777 152.402 47.2981L152.402 48.6545" id="Shape" fill="none" stroke="#070707" stroke-width="6" stroke-linecap="round" stroke-linejoin="round" />
        <path d="M138.878 111.919C139.407 111.822 139.898 111.538 140.285 111.106C140.619 110.728 140.826 110.222 140.867 109.681C140.934 109.19 140.801 108.69 140.506 108.33C140.129 107.957 139.686 107.685 139.209 107.534L138.141 107.162C137.495 106.961 136.868 106.683 136.271 106.331C135.785 106.037 135.381 105.586 135.108 105.033C134.811 104.366 134.7 103.609 134.789 102.865C134.847 101.783 135.261 100.768 135.945 100.032C136.631 99.2945 137.573 98.8663 138.773 98.7477L139.868 98.7477C140.401 98.7979 140.925 98.9466 141.419 99.1883C141.845 99.4108 142.215 99.7561 142.495 100.192C142.716 100.511 142.892 100.869 143.015 101.253C143.123 101.569 143.17 101.908 143.152 102.246C143.126 102.582 142.989 102.893 142.771 103.114C142.558 103.351 142.274 103.482 141.98 103.48C141.416 103.48 141.067 103.127 140.965 102.419C140.868 101.625 140.38 100.972 139.717 100.752L138.625 100.712C138.198 100.841 137.797 101.067 137.446 101.375C137.136 101.69 136.955 102.142 136.946 102.62C136.882 103.051 136.988 103.492 137.236 103.82C137.556 104.152 137.931 104.403 138.337 104.558L139.405 104.93C140.1 105.158 140.652 105.366 141.061 105.553C141.466 105.726 141.835 105.996 142.146 106.345C142.475 106.714 142.723 107.169 142.871 107.672C143.027 108.213 143.082 108.787 143.033 109.355C142.976 110.117 142.763 110.853 142.411 111.499C142.04 112.178 141.531 112.738 140.928 113.129C140.256 113.566 139.509 113.824 138.741 113.883L137.644 113.904C137.047 113.838 136.464 113.651 135.922 113.352C135.47 113.096 135.068 112.734 134.741 112.29C134.453 111.909 134.233 111.465 134.093 110.984C133.969 110.558 133.921 110.106 133.952 109.657C133.981 109.321 134.12 109.011 134.339 108.789C134.563 108.537 134.864 108.397 135.176 108.402C135.403 108.391 135.627 108.466 135.815 108.614C135.985 108.755 136.102 108.967 136.141 109.206C136.225 109.633 136.329 110.054 136.454 110.467C136.552 110.769 136.708 111.041 136.91 111.263C137.163 111.527 137.467 111.717 137.797 111.815L138.878 111.919Z" id="Shape" fill="#1C0E0C" stroke="none" />
        <path d="M138.08 115.369L138.041 115.369C137.92 115.357 137.808 115.29 137.731 115.182C137.653 115.074 137.615 114.934 137.626 114.793L138.933 97.3994C138.955 97.1062 139.177 96.8893 139.429 96.9149C139.68 96.9406 139.867 97.1991 139.845 97.4922L138.538 114.886C138.517 115.162 138.317 115.372 138.08 115.369L138.08 115.369Z" id="Shape" fill="#1C0E0C" stroke="none" />
      </g>
      <g id="PRESENT_BOX" transform="translate(56.863983 127.67849)">
        <path d="M61.5534 62.7617L44.9956 62.7617C44.9956 62.7617 29.0878 46.3657 22.1363 36.6958C21.1873 35.3661 20.32 33.9603 19.5409 32.4887C16.316 26.4022 20.0426 18.5533 26.1868 18.5134L26.3647 18.5134C43.1711 18.5134 61.5625 53.9466 61.5534 62.7617L61.5534 62.7617Z" id="Shape" fill="#1C0E0C" stroke="none" />
        <path d="M70.683 62.7617L59.0332 62.7617C59.0332 62.7617 47.8442 51.2284 42.9567 44.4227C42.2886 43.488 41.6789 42.499 41.1321 41.463C40.0851 39.4818 40.0365 36.9977 41.0051 34.9631C41.9737 32.9285 43.809 31.6592 45.8075 31.6419L45.9216 31.6419C57.7492 31.6313 70.6898 56.5611 70.683 62.7617L70.683 62.7617Z" id="Shape" fill="#F4F1ED" stroke="none" />
        <path d="M36.0508 0.00186311C63.9207 -0.337904 73.6159 46.0153 72.9978 62.7617L61.5534 62.7617C61.5534 53.9465 43.1711 18.5134 26.3647 18.5134C20.403 18.5134 16.8907 24.6954 18.6879 30.2935C18.6879 30.2935 7.13625 0.354898 36.0508 0.00186311L36.0508 0.00186311Z" id="Shape" fill="#E5BE3F" stroke="#000000" stroke-width="6" stroke-linecap="round" stroke-linejoin="round" />
        <path d="M143.122 54.9287C145.46 48.4095 142.312 40.8977 136.483 38.8512C109.452 29.3618 81.815 62.7617 81.815 62.7617L64.1077 62.7617C64.1077 62.7617 89.2181 14.1045 131.023 21.3377C140.175 22.9197 152.201 33.1788 143.122 54.9287L143.122 54.9287Z" id="Shape" fill="#E5BE3F" stroke="#000000" stroke-width="6" stroke-linecap="round" stroke-linejoin="round" />
        <path d="M143.079 55.0402C141.822 58.459 140.285 61.6601 139.202 62.7617L123.832 62.7617C123.832 62.7617 127.513 61.3124 131.066 55.0402C135.384 47.4248 133.386 37.9991 127.467 37.3541C130.505 37.4629 133.529 37.8133 136.49 38.8512C142.344 40.911 145.496 48.4945 143.079 55.0402L143.079 55.0402Z" id="Shape" fill="#1C0E0C" stroke="none" />
        <path d="M21.4567 85.2017L21.4567 73.7163C21.4567 70.5447 22.4201 67.8375 24.3471 65.5949C26.274 63.3522 28.6001 62.2309 31.3252 62.2309L155.486 62.2309C158.211 62.2309 160.537 63.3522 162.464 65.5949C164.391 67.8375 165.354 70.5447 165.354 73.7163L165.354 206.735L165.354 218.22C165.354 221.392 164.391 224.099 162.464 226.341C160.537 228.584 158.211 229.705 155.486 229.705L41.1937 229.705L31.3252 229.705C28.6001 229.705 26.274 228.584 24.3471 226.341C22.4201 224.099 21.4567 221.392 21.4567 218.22L21.4567 85.2017Z" id="Rectangle" fill="#E5BE3F" fill-rule="evenodd" stroke="#000000" stroke-width="6" stroke-linecap="round" stroke-linejoin="round" />
        <path d="M0 85.2017L0 73.7163C0 70.5447 0.963474 67.8375 2.89042 65.5949C4.81737 63.3522 7.1434 62.2309 9.86852 62.2309L130.143 62.2309C132.868 62.2309 135.194 63.3522 137.121 65.5949C139.048 67.8375 140.011 70.5447 140.011 73.7163L140.011 218.22C140.011 221.392 139.048 224.099 137.121 226.341C135.194 228.584 132.868 229.705 130.143 229.705L19.737 229.705L9.86852 229.705C7.1434 229.705 4.81737 228.584 2.89042 226.341C0.963474 224.099 0 221.392 0 218.22L0 85.2017Z" id="Rectangle" fill="#F4F1ED" fill-rule="evenodd" stroke="#070707" stroke-width="6" stroke-linecap="round" stroke-linejoin="round" />
        <path d="M59.7517 82.5606C57.1826 79.5691 53.318 78.6737 49.9604 80.292C46.6028 81.9102 44.4137 85.7235 44.4141 89.953L44.4141 120.415L62.3836 120.415L62.3836 89.953C62.3869 87.1788 61.4395 84.5181 59.7513 82.5602L59.7517 82.5606ZM53.4 90.2583C52.6147 90.2593 51.9063 89.7097 51.6052 88.8657C51.3041 88.0217 51.4696 87.0497 52.0245 86.4031C52.5794 85.7565 53.4144 85.5628 54.1399 85.9122C54.8654 86.2617 55.3385 87.0855 55.3385 87.9994C55.3398 88.5989 55.1361 89.1744 54.7725 89.5991C54.4089 90.0238 53.9151 90.2629 53.4 90.2636L53.4 90.2583Z" id="Shape" fill="#F4F1ED" fill-rule="evenodd" stroke="none" />
        <path d="M58.5338 80.6123C55.9639 77.6198 52.0976 76.7248 48.7394 78.3452C45.3812 79.9655 43.1931 83.7817 43.1962 88.0127L43.1962 118.474L61.1657 118.474L61.1657 88.0127C61.171 85.2364 60.2236 82.5723 58.5339 80.6124L58.5338 80.6123ZM52.1821 88.31C51.1115 88.31 50.2435 87.2998 50.2435 86.0538C50.2435 84.8077 51.1115 83.7976 52.1821 83.7976C53.2528 83.7976 54.1207 84.8077 54.1207 86.0538C54.1219 87.3014 53.2539 88.3139 52.182 88.3153L52.1821 88.31Z" id="Shape" fill="none" fill-rule="evenodd" stroke="#070707" stroke-width="6" stroke-linecap="round" stroke-linejoin="round" />
        <path d="M52.1821 85.207L52.1821 61.7079C52.1811 60.3227 52.6537 58.9925 53.4957 58.0115C54.3377 57.0305 55.4802 56.4792 56.6715 56.4788L56.6715 56.4788C59.1529 56.4788 61.1645 58.8199 61.1645 61.7079L61.1645 62.2388" id="Shape" fill="none" stroke="#070707" stroke-width="6" stroke-linecap="round" stroke-linejoin="round" />
        <path d="M55.8334 103.782C55.6715 103.345 55.4285 102.956 55.1218 102.641C54.8358 102.336 54.5032 102.097 54.1412 101.935C53.774 101.773 53.2813 101.595 52.6656 101.404L52.6222 101.404L52.6222 97.7834L52.6656 97.7834C53.2562 97.978 53.7101 98.5295 53.8515 99.2248C53.9975 99.8406 54.3076 100.146 54.8003 100.146C55.0485 100.15 55.2873 100.036 55.4617 99.8299C55.6368 99.6334 55.7349 99.3619 55.7331 99.0787C55.7249 98.7803 55.6627 98.4873 55.5506 98.2187C55.4208 97.8866 55.2503 97.5781 55.0443 97.303C54.7731 96.9281 54.4313 96.631 54.0454 96.435C53.6086 96.2273 53.1471 96.0984 52.6769 96.0528L52.6336 96.0528L52.6336 94.9512C52.6336 94.658 52.4294 94.4203 52.1775 94.4203C51.9256 94.4203 51.7213 94.658 51.7213 94.9512L51.7213 96.0554C50.695 96.1599 49.9105 96.5297 49.3677 97.165C48.8173 97.8161 48.5212 98.7021 48.5489 99.6149C48.5243 100.274 48.6705 100.927 48.9685 101.489C49.2397 101.97 49.616 102.358 50.0587 102.614C50.5916 102.916 51.1484 103.156 51.7213 103.331L51.7213 107.368C51.4291 107.283 51.1576 107.12 50.9276 106.893C50.7358 106.703 50.5804 106.468 50.4715 106.203C50.3377 105.847 50.2205 105.483 50.1203 105.112C50.0677 104.903 49.954 104.722 49.7987 104.6C49.6298 104.473 49.4317 104.409 49.2308 104.417C48.9688 104.409 48.7161 104.53 48.5352 104.751C48.3592 104.948 48.2581 105.218 48.2547 105.502C48.2577 105.899 48.3282 106.29 48.4622 106.654C48.6189 107.072 48.8374 107.455 49.1077 107.785C49.4193 108.163 49.7891 108.47 50.1978 108.69C50.6778 108.947 51.1912 109.108 51.7168 109.168L51.7168 109.999C51.7168 110.292 51.921 110.53 52.1729 110.53C52.4248 110.53 52.629 110.292 52.629 109.999L52.629 109.152L52.6724 109.152C53.3221 109.105 53.9533 108.882 54.5152 108.499C55.0109 108.162 55.4179 107.674 55.692 107.087C55.9581 106.517 56.0954 105.878 56.0911 105.229C56.0922 104.731 56.0044 104.239 55.8335 103.782L55.8334 103.782ZM50.711 100.438C50.261 99.823 50.2708 98.9158 50.7338 98.3143C51.018 98.0453 51.3486 97.8507 51.7031 97.7436L51.7031 101.072C51.3405 100.937 51.0036 100.721 50.711 100.438L50.711 100.438ZM53.8219 106.755C53.5109 107.132 53.1024 107.38 52.6587 107.461L52.6154 107.461L52.6154 103.644L52.6587 103.644C53.0881 103.781 53.4887 104.02 53.8355 104.345C54.1104 104.646 54.2566 105.074 54.2347 105.513C54.2426 105.973 54.0971 106.418 53.8287 106.755L53.8219 106.755Z" id="Shape" fill="#1C0E0C" fill-rule="evenodd" stroke="none" />
      </g>
      <g id="ABSTRACT_ELEMENTS" transform="translate(40.937958 131.21597)">
        <path d="M0 8.38249C0 3.75297 3.22463 0 7.2024 0C11.1802 0 14.4048 3.75297 14.4048 8.38249C14.4048 13.012 11.1802 16.765 7.2024 16.765C3.22463 16.765 0 13.012 0 8.38249Z" id="Circle" fill="#F4F1ED" fill-rule="evenodd" stroke="#070707" stroke-width="6" stroke-linecap="round" stroke-linejoin="round" />
        <path d="M266.389 214.037C266.389 209.408 269.613 205.655 273.591 205.655C277.569 205.655 280.793 209.408 280.793 214.037C280.793 218.667 277.569 222.42 273.591 222.42C269.613 222.42 266.389 218.667 266.389 214.037Z" id="Circle" fill="#F4F1ED" fill-rule="evenodd" stroke="#070707" stroke-width="6" stroke-linecap="round" stroke-linejoin="round" />
        <path d="M292.721 39.0245C292.721 37.0689 294.083 35.4836 295.764 35.4836C297.444 35.4836 298.806 37.0689 298.806 39.0245C298.806 40.9801 297.444 42.5654 295.764 42.5654C294.083 42.5654 292.721 40.9801 292.721 39.0245Z" id="Circle" fill="#F4F1ED" fill-rule="evenodd" stroke="#070707" stroke-width="6" stroke-linecap="round" stroke-linejoin="round" />
        <path d="M281.58 226.699C281.58 225.231 282.602 224.042 283.863 224.042C285.124 224.042 286.146 225.231 286.146 226.699C286.146 228.166 285.124 229.356 283.863 229.356C282.602 229.356 281.58 228.166 281.58 226.699Z" id="Circle" fill="#F4F1ED" fill-rule="evenodd" stroke="#070707" stroke-width="6" stroke-linecap="round" stroke-linejoin="round" />
        <path d="M3.437 143.307C3.437 141.839 4.45912 140.65 5.71997 140.65C6.98081 140.65 8.00293 141.839 8.00293 143.307C8.00293 144.774 6.98081 145.964 5.71997 145.964C4.45912 145.964 3.437 144.774 3.437 143.307Z" id="Circle" fill="#C5DCDD" fill-rule="evenodd" stroke="none" />
      </g>
      <g id="BOX_SHOE" transform="translate(114.022484 234.41982)">
        <g id="BOX" transform="translate(0 59.498207)">
          <path d="M25.0259 21.2801L180.215 21.2801L180.215 81.3882L25.0259 81.3882L25.0259 21.2801Z" id="Rectangle" fill="#F4F1ED" fill-rule="evenodd" stroke="#070707" stroke-width="6" stroke-linecap="round" stroke-linejoin="round" />
          <path d="M6.02785 21.2801L151.171 21.2801L151.171 81.3882L6.02785 81.3882L6.02785 21.2801Z" id="Rectangle" fill="#F4F1ED" fill-rule="evenodd" stroke="#070707" stroke-width="6" stroke-linecap="round" stroke-linejoin="round" />
          <path d="M5.63101 4.0745L180.728 4.0745L180.728 25.3546L5.63101 25.3546L5.63101 4.0745Z" id="Rectangle" fill="#1C0E0C" fill-rule="evenodd" stroke="none" />
          <path d="M18.583 0L186.658 0L186.658 21.2801L18.583 21.2801L18.583 0Z" id="Rectangle" fill="#F4F1ED" fill-rule="evenodd" stroke="#070707" stroke-width="6" stroke-linecap="round" stroke-linejoin="round" />
          <path d="M0 0L157.194 0L157.194 21.2801L0 21.2801L0 0Z" id="Rectangle" fill="#F4F1ED" fill-rule="evenodd" stroke="#070707" stroke-width="6" stroke-linecap="round" stroke-linejoin="round" />
        </g>
        <g id="SHOE" transform="translate(44.078804 0)">
          <path d="M117.868 43.4977C117.761 44.9576 115.501 51.9173 115.501 51.9173L0 47.3651L0 39.8612C0 27.2848 3.6719 16.4231 5.61733 11.7063C8.61643 4.42278 12.7696 6.23835 12.7696 6.23835C12.7696 6.23835 24.0658 19.0881 36.735 19.0881C39.1776 19.0881 40.9292 17.5831 42.1767 15.3933C42.925 14.0355 43.5076 12.5633 43.9077 11.0189C44.4353 9.00817 44.8063 6.94627 45.0162 4.85813C45.208 3.06436 46.1397 1.49232 47.5123 0.646495C48.885 -0.199324 50.5258 -0.212512 51.9084 0.611161C56.8826 3.58671 62.9218 10.2465 79.085 20.4127C79.8969 20.9259 80.7332 21.4453 81.5938 21.9708C101.267 34.0057 117.658 29.5251 117.868 43.4977L117.868 43.4977Z" id="Shape" fill="#F4F1ED" stroke="#070707" stroke-width="6" stroke-linecap="round" stroke-linejoin="round" />
          <path d="M104.88 58.5665C108.225 58.5665 112.303 56.804 114.495 53.9532C116.687 51.1024 118.527 45.8999 117.499 40.3098L117.407 40.3098C116.304 47.2111 110.985 50.5954 106.985 50.5954L6.8489 47.1766C3.74261 47.1766 1.08561 44.6815 0.00684814 41.1486L0.00684814 48.9763C0.00684814 54.285 3.30699 58.5665 7.38029 58.5665L104.88 58.5665Z" id="Shape" fill="#F4F1ED" stroke="#070707" stroke-width="6" stroke-linecap="round" stroke-linejoin="round" />
          <path d="M42.179 15.3933C41.3009 19.473 35.6083 23.8182 19.0916 18.1167C5.33678 13.368 0 33.3182 0 41.1486L0 39.8586C0 27.2822 3.6719 16.4205 5.61733 11.7037C8.61643 4.42017 12.7695 6.23575 12.7695 6.23575C12.7695 6.23575 24.0658 19.0855 36.735 19.0855C39.1776 19.0855 40.9291 17.5805 42.1767 15.3907L42.179 15.3933Z" id="Shape" fill="#F46F40" stroke="#000000" stroke-width="6" stroke-linecap="round" stroke-linejoin="round" />
          <path d="M83.4844 23.0909C58.4699 13.1344 45.9512 8.62731 43.9077 11.0162C44.4353 9.00553 44.8063 6.94364 45.0161 4.85549C45.208 3.06172 46.1397 1.48968 47.5123 0.643859C48.8849 -0.201961 50.5258 -0.215149 51.9084 0.608524C56.8939 3.5946 65.1979 12.4443 83.4844 23.0909L83.4844 23.0909Z" id="Shape" fill="#F4F1ED" stroke="#070707" stroke-width="6" stroke-linecap="round" stroke-linejoin="round" />
          <path d="M57.9431 13.1397L61.1862 7.40097C61.5685 6.72319 62.1732 6.25783 62.8588 6.11381C63.5444 5.96978 64.2507 6.15972 64.8125 6.63917L64.8125 6.63917C65.8434 7.51532 66.1549 9.14624 65.54 10.4482L65.109 11.3666" id="Shape" fill="none" stroke="#070707" stroke-width="6" stroke-linecap="round" stroke-linejoin="round" />
          <path d="M65.3804 15.6454L67.677 11.4568C68.0108 10.8645 68.539 10.4577 69.138 10.3317C69.7369 10.2058 70.354 10.3717 70.8448 10.7906L70.8448 10.7906C71.7448 11.5571 72.0162 12.9818 71.4789 14.1192L71.1003 14.9155" id="Shape" fill="none" stroke="#070707" stroke-width="6" stroke-linecap="round" stroke-linejoin="round" />
          <path d="M76.7883 18.9024C77.3556 17.6987 77.0688 16.1922 76.1178 15.38L76.1178 15.38C75.598 14.9378 74.9451 14.7629 74.3114 14.8964C73.6778 15.0298 73.1189 15.4598 72.7652 16.0861L71.3124 18.3025" id="Shape" fill="none" stroke="#070707" stroke-width="6" stroke-linecap="round" stroke-linejoin="round" />
          <path d="M83.4388 23.0644C71.3949 25.6008 61.6613 35.9369 58.3901 49.6637L53.7809 49.4832C56.7552 35.3975 65.7118 24.0601 77.5228 19.4305C78.0337 19.7579 78.5544 20.0879 79.0851 20.4206C79.897 20.9338 80.7332 21.4532 81.5938 21.9787C82.2095 22.3583 82.8276 22.7167 83.4388 23.0644L83.4388 23.0644Z" id="Shape" fill="#F46F40" stroke="#000000" stroke-width="6" stroke-linecap="round" stroke-linejoin="round" />
          <path d="M94.8628 28.2165L94.8628 28.9199C82.8605 28.9354 72.0039 37.217 67.2026 50.0195L62.4132 49.8284C66.4762 37.3314 75.5716 27.9691 86.7253 24.803C89.384 26.1076 92.1003 27.247 94.8628 28.2165L94.8628 28.2165Z" id="Shape" fill="#F46F40" stroke="#000000" stroke-width="6" stroke-linecap="round" stroke-linejoin="round" />
        </g>
      </g>
    </g>
  </g>
</svg>