<?xml version="1.0" encoding="utf-8"?>
<svg width="200.36365px" height="200.25px" viewBox="0 0 200.36365 200.25" version="1.1" xmlns:xlink="http://www.w3.org/1999/xlink" xmlns="http://www.w3.org/2000/svg">
  <defs>
    <path d="M100.364 0.25C45.1671 0.25 0.36364 45.0535 0.36364 100.25C0.36364 155.447 45.1671 200.25 100.364 200.25C155.56 200.25 200.364 155.447 200.364 100.25C200.364 45.0535 155.56 0.25 100.364 0.25L100.364 0.25ZM100.364 6.31061C152.281 6.31061 194.303 48.3324 194.303 100.25C194.303 152.168 152.281 194.189 100.364 194.189C48.446 194.189 6.42425 152.168 6.42425 100.25C6.42425 48.3324 48.446 6.31061 100.364 6.31061L100.364 6.31061ZM100.364 15.4015C98.6946 15.4015 97.3333 16.7628 97.3333 18.4318C97.3333 20.1009 98.6946 21.4621 100.364 21.4621C102.033 21.4621 103.394 20.1009 103.394 18.4318C103.394 16.7628 102.033 15.4015 100.364 15.4015L100.364 15.4015ZM116.403 16.964C114.923 16.9285 113.645 17.9583 113.349 19.4143C113.029 21.0478 114.095 22.6458 115.74 22.9772C117.374 23.2968 118.972 22.2315 119.303 20.598C119.623 18.9526 118.557 17.3546 116.924 17.0232C116.746 16.9995 116.581 16.9758 116.403 16.964L116.403 16.964ZM84.419 16.9759C84.2178 16.9759 84.0166 16.9877 83.8153 17.0232C82.17 17.3546 81.1046 18.9527 81.4361 20.598C81.59 21.3793 82.0516 22.0777 82.7263 22.5275C83.3892 22.9654 84.206 23.1312 84.9991 22.9773C86.6444 22.6458 87.7098 21.0597 87.3783 19.4143C87.0942 18.0057 85.8632 16.9877 84.419 16.9759L84.419 16.9759ZM69.0782 21.6278C68.6757 21.6278 68.2732 21.6989 67.8944 21.8527C66.3438 22.5038 65.6099 24.2675 66.2609 25.8182C66.9001 27.3688 68.6639 28.1027 70.2145 27.4635C71.7652 26.8125 72.4991 25.0488 71.8599 23.4981C71.3864 22.3736 70.2974 21.6397 69.0782 21.6278L69.0782 21.6278ZM131.744 21.6278C130.489 21.6042 129.353 22.3381 128.867 23.4981C128.228 25.0488 128.962 26.8125 130.513 27.4635C132.063 28.1027 133.827 27.3688 134.466 25.8182C135.117 24.2675 134.384 22.5038 132.833 21.8527C132.49 21.7107 132.111 21.6397 131.744 21.6278L131.744 21.6278ZM54.9446 29.1799C54.3291 29.1799 53.7254 29.3575 53.2164 29.7008C51.8314 30.6241 51.4526 32.5062 52.3878 33.9029C53.3111 35.2879 55.1932 35.6667 56.5899 34.7315C57.9867 33.8082 58.3537 31.9261 57.4304 30.5412C56.874 29.7008 55.9389 29.1918 54.9446 29.1799L54.9446 29.1799ZM145.866 29.1798C144.836 29.1679 143.865 29.6769 143.297 30.541C142.362 31.926 142.741 33.8081 144.125 34.7314C145.522 35.6665 147.404 35.2877 148.328 33.9028C148.777 33.2399 148.943 32.4113 148.789 31.63C148.635 30.837 148.174 30.1386 147.499 29.7006C147.014 29.3692 146.457 29.1916 145.866 29.1798L145.866 29.1798ZM42.5511 39.3598C41.7344 39.3598 40.9413 39.6795 40.3731 40.2595C39.1894 41.4313 39.1894 43.3608 40.3731 44.5327C41.545 45.7164 43.4744 45.7164 44.6463 44.5327C45.83 43.3608 45.83 41.4313 44.6463 40.2595C44.09 39.6913 43.3442 39.3717 42.5511 39.3598L42.5511 39.3598ZM158.259 39.3598C157.442 39.3598 156.649 39.6795 156.081 40.2595C154.897 41.4313 154.897 43.3608 156.081 44.5327C157.253 45.7164 159.182 45.7164 160.354 44.5327C161.538 43.3608 161.538 41.4313 160.354 40.2595C159.798 39.6913 159.052 39.3717 158.259 39.3598L158.259 39.3598ZM168.427 51.765C167.812 51.7531 167.22 51.9307 166.711 52.274C165.326 53.1973 164.947 55.0794 165.882 56.4643C166.805 57.8611 168.688 58.2399 170.072 57.3047C171.469 56.3696 171.848 54.4993 170.913 53.1026C170.357 52.274 169.421 51.765 168.427 51.765L168.427 51.765ZM32.383 51.7652C31.3532 51.7415 30.3826 52.2505 29.8144 53.1028C28.8911 54.4996 29.258 56.3817 30.6548 57.305C32.0516 58.2401 33.9219 57.8613 34.857 56.4764C35.7803 55.0796 35.4133 53.1975 34.0166 52.2742C33.5312 51.9546 32.9749 51.777 32.383 51.7652L32.383 51.7652ZM100.364 51.7652C74.6534 51.7652 53.607 71.9001 52.0327 97.2197L36.7273 97.2197L56.4243 116.917L76.1212 97.2197L61.1236 97.2197C62.6743 76.9072 79.6605 60.8561 100.364 60.8561C112 60.8561 122.428 65.9579 129.649 73.9953L136.064 67.5796C127.198 57.8849 114.497 51.7652 100.364 51.7652L100.364 51.7652ZM175.979 65.9105C175.577 65.8987 175.174 65.9815 174.795 66.1354C173.245 66.7746 172.511 68.5502 173.15 70.089C173.801 71.6397 175.565 72.3736 177.116 71.7344C178.666 71.0952 179.4 69.3196 178.761 67.769C178.287 66.6563 177.198 65.9105 175.979 65.9105L175.979 65.9105ZM24.8428 65.9103C23.5881 65.8867 22.4517 66.6206 21.9782 67.7806C21.339 69.3313 22.0729 71.095 23.6117 71.746C25.1624 72.3852 26.938 71.6513 27.5772 70.1007C28.2164 68.55 27.4825 66.7863 25.9318 66.1471C25.5885 65.9932 25.2216 65.9222 24.8428 65.9103L24.8428 65.9103ZM180.619 81.2634C180.418 81.2515 180.217 81.2752 180.016 81.3107C178.382 81.6422 177.317 83.2402 177.636 84.8737C177.968 86.5191 179.566 87.5844 181.199 87.2648C182.845 86.9334 183.91 85.3354 183.591 83.69C183.306 82.2814 182.064 81.2634 180.619 81.2634L180.619 81.2634ZM20.2027 81.2634C18.723 81.2279 17.4446 82.2459 17.1487 83.69C16.9948 84.4831 17.1487 85.3117 17.5985 85.9746C18.0483 86.6493 18.7467 87.111 19.5398 87.2648C20.321 87.4187 21.1378 87.253 21.8125 86.815C22.4754 86.3652 22.937 85.6668 23.0909 84.8737C23.4224 83.2402 22.357 81.6422 20.7235 81.3108C20.5459 81.2871 20.3802 81.2634 20.2027 81.2634L20.2027 81.2634ZM144.303 83.5833L124.606 103.28L139.604 103.28C138.053 123.593 121.067 139.644 100.364 139.644C88.7278 139.644 78.2993 134.542 71.0786 126.505L64.6629 132.92C73.5289 142.615 86.2301 148.735 100.364 148.735C126.074 148.735 147.12 128.6 148.695 103.28L164 103.28L144.303 83.5833ZM18.5455 97.2197C16.8764 97.2197 15.5152 98.581 15.5152 100.25C15.5152 101.919 16.8764 103.28 18.5455 103.28C20.2145 103.28 21.5758 101.919 21.5758 100.25C21.5758 98.581 20.2145 97.2197 18.5455 97.2197L18.5455 97.2197ZM182.182 97.2197C180.513 97.2197 179.152 98.581 179.152 100.25C179.152 101.919 180.513 103.28 182.182 103.28C183.851 103.28 185.212 101.919 185.212 100.25C185.212 98.581 183.851 97.2197 182.182 97.2197L182.182 97.2197ZM20.1316 113.176C19.9304 113.176 19.7292 113.2 19.5279 113.235C17.8826 113.567 16.8172 115.165 17.1487 116.81C17.4801 118.444 19.0663 119.509 20.7116 119.189C22.357 118.858 23.4223 117.26 23.0909 115.626C22.8068 114.206 21.5758 113.188 20.1316 113.176L20.1316 113.176ZM180.69 113.176C179.211 113.141 177.932 114.171 177.636 115.627C177.317 117.26 178.382 118.858 180.016 119.19C181.661 119.509 183.259 118.444 183.591 116.81C183.91 115.165 182.845 113.567 181.199 113.235C181.034 113.212 180.868 113.188 180.69 113.176L180.69 113.176ZM176.027 128.517C174.772 128.494 173.635 129.239 173.15 130.399C172.511 131.938 173.245 133.714 174.795 134.353C176.346 134.992 178.11 134.258 178.761 132.719C179.4 131.169 178.666 129.393 177.116 128.754C176.772 128.612 176.393 128.529 176.027 128.517L176.027 128.517ZM24.7955 128.529C24.393 128.529 23.9906 128.6 23.6118 128.754C22.8779 129.062 22.286 129.653 21.9782 130.399C21.6705 131.145 21.6705 131.973 21.9664 132.719C22.6175 134.27 24.3812 135.004 25.9318 134.353C26.6776 134.057 27.2694 133.465 27.5772 132.719C27.885 131.973 27.885 131.145 27.5772 130.399C27.1156 129.275 26.0147 128.541 24.7955 128.529L24.7955 128.529ZM168.451 142.674C167.421 142.651 166.45 143.16 165.882 144.012C164.947 145.409 165.326 147.279 166.711 148.214C167.374 148.664 168.202 148.83 168.983 148.664C169.777 148.51 170.475 148.048 170.913 147.374C171.848 145.989 171.469 144.107 170.072 143.183C169.599 142.852 169.031 142.674 168.451 142.674L168.451 142.674ZM32.3712 142.674C31.7557 142.662 31.1638 142.84 30.6549 143.183C29.2699 144.118 28.8911 145.988 29.8144 147.385C30.7495 148.77 32.6316 149.149 34.0284 148.214C35.4134 147.291 35.7922 145.408 34.857 144.012C34.3007 143.183 33.3656 142.686 32.3712 142.674L32.3712 142.674ZM42.5511 155.079C41.7344 155.068 40.9413 155.387 40.3731 155.967C39.1894 157.139 39.1894 159.069 40.3731 160.24C41.545 161.424 43.4744 161.424 44.6463 160.24C45.83 159.069 45.83 157.139 44.6463 155.967C44.09 155.399 43.3442 155.079 42.5511 155.079L42.5511 155.079ZM158.259 155.079C157.442 155.068 156.649 155.387 156.081 155.967C154.897 157.139 154.897 159.069 156.081 160.24C157.253 161.424 159.182 161.424 160.354 160.24C161.538 159.069 161.538 157.139 160.354 155.967C159.798 155.399 159.052 155.079 158.259 155.079L158.259 155.079ZM54.9683 165.248C53.9385 165.224 52.9678 165.733 52.3997 166.585C51.4645 167.982 51.8433 169.864 53.2401 170.799C54.625 171.723 56.5071 171.344 57.4304 169.959C58.3656 168.562 57.9868 166.692 56.6018 165.757C56.1165 165.437 55.5483 165.248 54.9683 165.248L54.9683 165.248ZM145.854 165.248C145.238 165.236 144.646 165.414 144.137 165.745C143.463 166.195 143.001 166.893 142.847 167.686C142.693 168.468 142.859 169.296 143.309 169.959C144.232 171.344 146.114 171.723 147.511 170.799C148.896 169.864 149.275 167.982 148.34 166.585C147.795 165.757 146.86 165.248 145.854 165.248L145.854 165.248ZM69.1255 172.8C67.8707 172.776 66.7344 173.522 66.2609 174.682C65.6217 176.221 66.3556 177.996 67.8944 178.636C69.4451 179.275 71.2207 178.541 71.8599 177.002C72.4991 175.451 71.7652 173.676 70.2145 173.037C69.8712 172.895 69.5043 172.812 69.1255 172.8L69.1255 172.8ZM131.697 172.8C131.294 172.8 130.892 172.883 130.525 173.036C129.779 173.344 129.187 173.936 128.879 174.67C128.572 175.416 128.572 176.256 128.867 177.002C129.518 178.541 131.282 179.275 132.833 178.635C133.579 178.328 134.17 177.736 134.478 177.002C134.786 176.256 134.786 175.416 134.478 174.682C134.017 173.545 132.916 172.812 131.697 172.8L131.697 172.8ZM84.4901 177.464C83.0104 177.428 81.7202 178.458 81.4361 179.902C81.1046 181.548 82.17 183.134 83.8153 183.465C85.4607 183.797 87.0469 182.731 87.3783 181.086C87.7098 179.44 86.6444 177.854 84.9991 177.523C84.8333 177.487 84.6558 177.464 84.4901 177.464L84.4901 177.464ZM116.332 177.476C116.131 177.464 115.929 177.487 115.74 177.523C114.095 177.854 113.029 179.44 113.349 181.086C113.515 181.879 113.976 182.565 114.639 183.015C115.314 183.465 116.131 183.631 116.924 183.477C117.705 183.311 118.403 182.85 118.853 182.187C119.291 181.512 119.457 180.695 119.303 179.902C119.019 178.494 117.776 177.476 116.332 177.476L116.332 177.476ZM100.364 179.038C98.6946 179.038 97.3333 180.399 97.3333 182.068C97.3333 183.737 98.6946 185.098 100.364 185.098C102.033 185.098 103.394 183.737 103.394 182.068C103.394 180.399 102.033 179.038 100.364 179.038L100.364 179.038Z" id="path_1" />
    <clipPath id="clip_1">
      <use xlink:href="#path_1" />
    </clipPath>
  </defs>
  <g id="Redirect">
    <path d="M0 0L200 0L200 200L0 200L0 0Z" id="Rectangle" fill="#FFFFFF" fill-rule="evenodd" stroke="none" />
    <g id="Shape">
      <use stroke="none" fill="#E5BE3F" xlink:href="#path_1" fill-rule="evenodd" />
      <g clip-path="url(#clip_1)">
        <use xlink:href="#path_1" fill="none" stroke="#000000" stroke-width="2" />
      </g>
    </g>
  </g>
</svg>