<?xml version="1.0" encoding="utf-8"?>
<svg width="200px" height="200px" viewBox="0 0 200 200" version="1.1" xmlns:xlink="http://www.w3.org/1999/xlink" xmlns="http://www.w3.org/2000/svg">
  <defs>
    <path d="M100.181 0.249695C45.0852 0.249695 0.36298 44.9973 0.36298 100.125C0.36298 155.252 45.0852 200 100.181 200C155.278 200 200 155.252 200 100.125C200 44.9973 155.278 0.249695 100.181 0.249695L100.181 0.249695ZM100.182 6.30273C152.005 6.30273 193.95 48.2721 193.95 100.125C193.95 151.978 152.005 193.947 100.182 193.947C48.3581 193.947 6.41259 151.978 6.41259 100.125C6.41259 48.2721 48.3581 6.30273 100.182 6.30273L100.182 6.30273ZM100.182 15.3823C98.5155 15.3823 97.1567 16.7418 97.1567 18.4088C97.1567 20.0757 98.5155 21.4353 100.182 21.4353C101.848 21.4353 103.206 20.0757 103.206 18.4088C103.206 16.7418 101.848 15.3823 100.182 15.3823L100.182 15.3823ZM116.192 16.9428C114.715 16.9073 113.439 17.9359 113.143 19.39C112.824 21.0215 113.888 22.6175 115.53 22.9485C117.161 23.2677 118.756 22.2037 119.087 20.5722C119.406 18.9289 118.342 17.3329 116.712 17.0019C116.534 16.9783 116.369 16.9546 116.192 16.9428L116.192 16.9428ZM84.2658 16.9547C84.065 16.9547 83.8641 16.9665 83.6632 17.0019C82.0209 17.333 80.9575 18.929 81.2883 20.5723C81.4419 21.3526 81.9027 22.0501 82.5762 22.4993C83.2379 22.9368 84.0531 23.1023 84.8448 22.9486C86.4872 22.6176 87.5506 21.0334 87.2197 19.3901C86.9362 17.9832 85.7073 16.9665 84.2658 16.9547L84.2658 16.9547ZM68.9528 21.6008C68.5511 21.6008 68.1493 21.6718 67.7712 21.8255C66.2234 22.4757 65.4908 24.2372 66.1407 25.7859C66.7787 27.3347 68.5392 28.0676 70.0871 27.4292C71.6349 26.779 72.3675 25.0175 71.7295 23.4688C71.2569 22.3456 70.1698 21.6126 68.9528 21.6008L68.9528 21.6008ZM131.505 21.6008C130.252 21.5772 129.118 22.3102 128.634 23.4688C127.996 25.0175 128.728 26.779 130.276 27.4292C131.824 28.0677 133.584 27.3347 134.222 25.7859C134.872 24.2372 134.14 22.4757 132.592 21.8255C132.249 21.6836 131.871 21.6127 131.505 21.6008L131.505 21.6008ZM54.8449 29.1435C54.2305 29.1435 53.6279 29.3208 53.1198 29.6637C51.7374 30.5858 51.3593 32.4656 52.2927 33.8606C53.2143 35.2438 55.093 35.6221 56.4872 34.6882C57.8815 33.766 58.2478 31.8863 57.3261 30.5031C56.7708 29.6637 55.8374 29.1553 54.8449 29.1435L54.8449 29.1435ZM145.601 29.1433C144.573 29.1315 143.604 29.6399 143.037 30.5029C142.103 31.8861 142.481 33.7659 143.864 34.688C145.258 35.622 147.137 35.2437 148.058 33.8604C148.507 33.1984 148.673 32.3708 148.519 31.5906C148.366 30.7985 147.905 30.1009 147.231 29.6635C146.747 29.3325 146.192 29.1552 145.601 29.1433L145.601 29.1433ZM42.4739 39.3107C41.6586 39.3107 40.867 39.6299 40.2998 40.2092C39.1183 41.3796 39.1183 43.3067 40.2998 44.4771C41.4696 45.6593 43.3955 45.6593 44.5653 44.4771C45.7469 43.3067 45.7469 41.3796 44.5653 40.2092C44.01 39.6418 43.2656 39.3225 42.4739 39.3107L42.4739 39.3107ZM157.972 39.3107C157.157 39.3107 156.365 39.6299 155.798 40.2092C154.616 41.3796 154.616 43.3067 155.798 44.4771C156.967 45.6593 158.893 45.6593 160.063 44.4771C161.245 43.3067 161.245 41.3796 160.063 40.2092C159.508 39.6418 158.763 39.3225 157.972 39.3107L157.972 39.3107ZM168.121 51.7003C167.507 51.6885 166.916 51.8658 166.408 52.2087C165.026 53.1308 164.648 55.0106 165.581 56.3938C166.503 57.7888 168.381 58.1671 169.764 57.2332C171.158 56.2992 171.536 54.4313 170.603 53.0362C170.047 52.2087 169.114 51.7003 168.121 51.7003L168.121 51.7003ZM32.3243 51.7006C31.2963 51.6769 30.3274 52.1853 29.7603 53.0365C28.8387 54.4315 29.205 56.3113 30.5992 57.2334C31.9934 58.1674 33.8603 57.7891 34.7937 56.4058C35.7154 55.0108 35.3491 53.1311 33.9548 52.2089C33.4704 51.8897 32.9151 51.7124 32.3243 51.7006L32.3243 51.7006ZM100.182 51.7006C74.5179 51.7006 53.5097 71.8104 51.9382 97.0984L36.6606 97.0984L56.3218 116.771L75.9831 97.0984L61.0127 97.0984C62.5605 76.8112 79.5159 60.7801 100.182 60.7801C111.796 60.7801 122.206 65.8756 129.413 73.9029L135.817 67.4952C126.968 57.8127 114.289 51.7006 100.182 51.7006L100.182 51.7006ZM175.66 65.8283C175.258 65.8164 174.856 65.8992 174.478 66.0529C172.93 66.6913 172.198 68.4647 172.836 70.0016C173.486 71.5503 175.246 72.2833 176.794 71.6449C178.342 71.0065 179.075 69.2331 178.436 67.6844C177.964 66.5731 176.877 65.8283 175.66 65.8283L175.66 65.8283ZM24.7977 65.8281C23.5453 65.8044 22.411 66.5374 21.9383 67.696C21.3003 69.2447 22.0329 71.0063 23.5689 71.6565C25.1167 72.2949 26.8891 71.5619 27.5271 70.0132C28.1652 68.4645 27.4326 66.7029 25.8848 66.0645C25.5421 65.9108 25.1758 65.8399 24.7977 65.8281L24.7977 65.8281ZM180.292 81.1619C180.091 81.1501 179.89 81.1738 179.689 81.2092C178.058 81.5403 176.995 83.1363 177.314 84.7678C177.645 86.4111 179.24 87.4751 180.871 87.1559C182.513 86.8248 183.576 85.2288 183.257 83.5855C182.974 82.1787 181.733 81.1619 180.292 81.1619L180.292 81.1619ZM20.166 81.162C18.689 81.1265 17.413 82.1432 17.1176 83.5856C16.964 84.3776 17.1176 85.2052 17.5666 85.8673C18.0156 86.5411 18.7127 87.0022 19.5043 87.1559C20.2842 87.3096 21.0994 87.1441 21.7729 86.7066C22.4346 86.2574 22.8954 85.5599 23.049 84.7678C23.3799 83.1363 22.3164 81.5403 20.6859 81.2093C20.5086 81.1856 20.3432 81.162 20.166 81.162L20.166 81.162ZM144.041 83.479L124.38 103.151L139.35 103.151C137.803 123.439 120.847 139.47 100.182 139.47C88.5667 139.47 78.1572 134.374 70.9496 126.347L64.5455 132.755C73.3955 142.437 86.0736 148.549 100.182 148.549C125.845 148.549 146.853 128.439 148.425 103.151L163.702 103.151L144.041 83.479ZM18.5118 97.0983C16.8458 97.0983 15.487 98.4579 15.487 100.125C15.487 101.792 16.8458 103.151 18.5118 103.151C20.1778 103.151 21.5366 101.792 21.5366 100.125C21.5366 98.4579 20.1778 97.0983 18.5118 97.0983L18.5118 97.0983ZM181.851 97.0983C180.185 97.0983 178.826 98.4579 178.826 100.125C178.826 101.792 180.185 103.151 181.851 103.151C183.517 103.151 184.876 101.792 184.876 100.125C184.876 98.4579 183.517 97.0983 181.851 97.0983L181.851 97.0983ZM20.0951 113.035C19.8942 113.035 19.6934 113.058 19.4925 113.094C17.8501 113.425 16.7867 115.021 17.1175 116.664C17.4484 118.296 19.0317 119.36 20.6741 119.041C22.3164 118.71 23.3798 117.114 23.049 115.482C22.7654 114.063 21.5366 113.047 20.0951 113.035L20.0951 113.035ZM180.363 113.035C178.886 113 177.609 114.028 177.314 115.482C176.995 117.114 178.058 118.71 179.689 119.041C181.331 119.36 182.926 118.296 183.257 116.664C183.576 115.021 182.513 113.425 180.871 113.094C180.705 113.07 180.54 113.047 180.363 113.035L180.363 113.035ZM175.707 128.357C174.455 128.333 173.32 129.078 172.836 130.236C172.198 131.773 172.93 133.547 174.478 134.185C176.026 134.824 177.787 134.091 178.436 132.554C179.075 131.005 178.342 129.232 176.794 128.593C176.451 128.451 176.073 128.369 175.707 128.357L175.707 128.357ZM24.7505 128.368C24.3488 128.368 23.947 128.439 23.5689 128.593C22.8364 128.9 22.2456 129.492 21.9384 130.236C21.6312 130.981 21.6312 131.809 21.9265 132.554C22.5764 134.102 24.3369 134.835 25.8848 134.185C26.6292 133.889 27.22 133.298 27.5272 132.554C27.8344 131.809 27.8344 130.981 27.5272 130.236C27.0663 129.113 25.9675 128.38 24.7505 128.368L24.7505 128.368ZM168.145 142.496C167.117 142.473 166.148 142.981 165.581 143.832C164.648 145.227 165.026 147.095 166.408 148.029C167.07 148.478 167.897 148.644 168.677 148.478C169.468 148.325 170.165 147.864 170.603 147.19C171.536 145.806 171.158 143.927 169.764 143.005C169.291 142.673 168.724 142.496 168.145 142.496L168.145 142.496ZM32.3125 142.496C31.6981 142.484 31.1073 142.661 30.5992 143.004C29.2168 143.938 28.8387 145.806 29.7603 147.201C30.6937 148.584 32.5724 148.963 33.9667 148.029C35.3491 147.107 35.7272 145.227 34.7938 143.832C34.2384 143.004 33.305 142.508 32.3125 142.496L32.3125 142.496ZM42.4739 154.886C41.6586 154.874 40.867 155.193 40.2998 155.773C39.1183 156.943 39.1183 158.87 40.2998 160.04C41.4696 161.223 43.3955 161.223 44.5653 160.04C45.7469 158.87 45.7469 156.943 44.5653 155.773C44.01 155.205 43.2656 154.886 42.4739 154.886L42.4739 154.886ZM157.972 154.886C157.157 154.874 156.365 155.193 155.798 155.773C154.616 156.943 154.616 158.87 155.798 160.04C156.967 161.223 158.893 161.223 160.063 160.04C161.245 158.87 161.245 156.943 160.063 155.773C159.508 155.205 158.763 154.886 157.972 154.886L157.972 154.886ZM54.8685 165.041C53.8406 165.018 52.8717 165.526 52.3046 166.377C51.3711 167.772 51.7492 169.652 53.1435 170.586C54.5259 171.508 56.4046 171.13 57.3262 169.747C58.2596 168.352 57.8815 166.484 56.4991 165.55C56.0147 165.231 55.4475 165.041 54.8685 165.041L54.8685 165.041ZM145.589 165.042C144.975 165.03 144.384 165.207 143.876 165.538C143.202 165.987 142.741 166.685 142.588 167.477C142.434 168.257 142.6 169.085 143.049 169.747C143.97 171.13 145.849 171.508 147.243 170.586C148.626 169.652 149.004 167.772 148.07 166.377C147.527 165.55 146.593 165.042 145.589 165.042L145.589 165.042ZM69 172.584C67.7476 172.561 66.6133 173.305 66.1407 174.464C65.5026 176.001 66.2352 177.774 67.7712 178.413C69.3191 179.051 71.0914 178.318 71.7295 176.781C72.3675 175.232 71.6349 173.459 70.0871 172.821C69.7444 172.679 69.3781 172.596 69 172.584L69 172.584ZM131.458 172.584C131.056 172.584 130.654 172.667 130.288 172.82C129.543 173.128 128.953 173.719 128.645 174.452C128.338 175.197 128.338 176.036 128.634 176.781C129.283 178.318 131.044 179.051 132.592 178.412C133.336 178.105 133.927 177.514 134.234 176.781C134.541 176.036 134.541 175.197 134.234 174.464C133.773 173.329 132.675 172.596 131.458 172.584L131.458 172.584ZM84.3367 177.242C82.8598 177.207 81.5719 178.235 81.2883 179.678C80.9575 181.321 82.0209 182.905 83.6632 183.236C85.3056 183.567 86.8889 182.503 87.2197 180.86C87.5506 179.216 86.4872 177.632 84.8448 177.301C84.6794 177.266 84.5022 177.242 84.3367 177.242L84.3367 177.242ZM116.121 177.254C115.92 177.242 115.719 177.266 115.53 177.301C113.888 177.632 112.824 179.216 113.143 180.86C113.309 181.652 113.77 182.338 114.431 182.787C115.105 183.236 115.92 183.402 116.712 183.248C117.491 183.082 118.189 182.621 118.638 181.959C119.075 181.285 119.24 180.47 119.087 179.678C118.803 178.271 117.562 177.254 116.121 177.254L116.121 177.254ZM100.182 178.814C98.5155 178.814 97.1567 180.174 97.1567 181.841C97.1567 183.508 98.5155 184.867 100.182 184.867C101.848 184.867 103.206 183.508 103.206 181.841C103.206 180.174 101.848 178.814 100.182 178.814L100.182 178.814Z" id="path_1" />
    <clipPath id="clip_1">
      <use xlink:href="#path_1" />
    </clipPath>
  </defs>
  <g id="Redirect">
    <path d="M0 0L199.637 0L199.637 199.75L0 199.75L0 0Z" id="Rectangle" fill="#FFFFFF" fill-rule="evenodd" stroke="none" />
    <g id="Shape">
      <use stroke="none" fill="#E5BE3F" xlink:href="#path_1" fill-rule="evenodd" />
      <g clip-path="url(#clip_1)">
        <use xlink:href="#path_1" fill="none" stroke="#000000" stroke-width="2" />
      </g>
    </g>
  </g>
</svg>